<?xml version="1.0" encoding="UTF-8"?>
<!DOCTYPE svg PUBLIC "-//W3C//DTD SVG 1.1//EN" "http://www.w3.org/Graphics/SVG/1.1/DTD/svg11.dtd">
<!-- Creator: CorelDRAW X7 -->
<svg xmlns="http://www.w3.org/2000/svg" xml:space="preserve" width="50.7998mm" height="40.6398mm" version="1.1" style="shape-rendering:geometricPrecision; text-rendering:geometricPrecision; image-rendering:optimizeQuality; fill-rule:evenodd; clip-rule:evenodd"
viewBox="0 0 5080 4064"
 xmlns:xlink="http://www.w3.org/1999/xlink">
 <defs>
  <style type="text/css">
   <![CDATA[
    .str1 {stroke:#57A695;stroke-width:8.46}
    .str6 {stroke:#11B255;stroke-width:8.46}
    .str4 {stroke:#3E4095;stroke-width:8.46}
    .str0 {stroke:#57A695;stroke-width:8.46;stroke-linecap:round;stroke-linejoin:round}
    .str5 {stroke:#11B255;stroke-width:8.46;stroke-linecap:round;stroke-linejoin:round}
    .str2 {stroke:#333A70;stroke-width:8.46;stroke-linecap:round;stroke-linejoin:round}
    .str3 {stroke:#3E4095;stroke-width:8.46;stroke-linecap:round;stroke-linejoin:round}
    .fil3 {fill:none}
    .fil4 {fill:none;fill-rule:nonzero}
    .fil0 {fill:#FEFEFE}
    .fil5 {fill:#D2D3D5}
    .fil6 {fill:#BDBFC1}
    .fil10 {fill:#0E7849}
    .fil11 {fill:#145E3D}
    .fil7 {fill:#333A70}
    .fil8 {fill:#3E4095}
    .fil2 {fill:#11381E}
    .fil1 {fill:#1C472A}
    .fil12 {fill:#11B255;fill-rule:nonzero}
    .fil9 {fill:#3E4095;fill-rule:nonzero}
   ]]>
  </style>
 </defs>
 <g id="Layer_x0020_1">
  <metadata id="CorelCorpID_0Corel-Layer"/>
  <rect class="fil0" width="5080" height="4064"/>
  <rect class="fil1" x="175" y="343" width="1017" height="1018" rx="51" ry="68"/>
  <g>
   <path class="fil2" d="M1192 910l0 383c0,37 -31,68 -68,68l-470 0 -227 -286c-50,-60 -80,-138 -80,-223 0,-194 157,-351 351,-351 115,0 217,55 281,141l213 268zm-683 22l9 18c-3,-6 -6,-12 -9,-18zm9 18l10 17c-3,-6 -7,-12 -10,-17zm10 17l12 15c-4,-5 -8,-10 -12,-15zm-34 -94l4 20c-2,-6 -3,-13 -4,-20zm4 20l5 20c-2,-7 -4,-13 -5,-20zm5 20l6 19c-2,-6 -4,-13 -6,-19zm-5 -102l-4 20c1,-7 2,-14 4,-20zm-4 20l-1 21c0,-7 1,-14 1,-21zm-1 21l1 21c0,-7 -1,-14 -1,-21zm25 -98l-9 18c3,-6 6,-12 9,-18zm-9 18l-6 19c2,-6 4,-13 6,-19zm-6 19l-5 20c1,-7 3,-14 5,-20zm50 -84l-13 15c4,-5 9,-10 13,-15zm-13 15l-12 15c4,-5 8,-10 12,-15zm-12 15l-10 17c3,-6 7,-11 10,-17zm73 -65l-17 10c5,-4 11,-7 17,-10zm-17 10l-16 12c5,-4 10,-8 16,-12zm-16 12l-15 13c5,-5 10,-9 15,-13zm89 -43l-20 5c7,-2 13,-3 20,-5zm-20 5l-19 7c7,-2 13,-5 19,-7zm-19 7l-17 9c5,-3 11,-6 17,-9zm101 -15l-21 -1c7,0 14,0 21,1zm-21 -1l-21 1c7,-1 14,-1 21,-1zm-21 1l-20 3c7,-1 13,-2 20,-3zm101 15l-19 -7c6,2 13,5 19,7zm-19 -7l-20 -5c7,2 14,3 20,5zm-20 -5l-20 -3c7,1 14,2 20,3zm89 43l-15 -12c5,4 10,8 15,12zm-15 -12l-17 -10c6,3 11,6 17,10zm-17 -10l-18 -9c6,3 12,6 18,9zm64 54l-4 -4c2,1 3,3 4,4zm-4 -4l0 0 0 0 0 0 -13 -15c5,5 9,10 13,15l0 0zm-13 -15l-15 -13c5,4 10,8 15,13z"/>
  </g>
  <g>
   <path class="fil3 str0" d="M884 767c-20,-45 -56,-80 -100,-101l55 -135 45 236z"/>
   <path class="fil3 str0" d="M839 531l3 1c79,36 142,100 177,179l-135 56 -45 -236z"/>
   <path class="fil3 str0" d="M613 666l-1 1c-44,20 -79,56 -99,100l-135 -56 235 -45z"/>
   <path class="fil3 str0" d="M378 711c35,-80 99,-144 179,-180l56 135 -235 45z"/>
   <path class="fil3 str0" d="M372 725l3 1 132 55c-8,22 -13,46 -13,71 0,25 5,49 13,71l-135 -198z"/>
   <path class="fil3 str0" d="M372 979c-15,-39 -24,-82 -24,-127 0,-45 9,-88 24,-127l135 198 -135 56z"/>
   <path class="fil3 str0" d="M513 937c1,3 2,5 3,7 21,41 55,75 97,94l-56 135 -44 -236z"/>
   <path class="fil3 str0" d="M557 1173c-80,-36 -144,-100 -179,-180l135 -56 44 236z"/>
   <path class="fil3 str0" d="M571 1178l56 -134c22,8 46,12 71,12 25,0 49,-4 72,-12l-199 134z"/>
   <path class="fil3 str0" d="M825 1178c-39,16 -82,24 -127,24 -44,0 -87,-8 -127,-24l199 -134 55 134z"/>
   <path class="fil3 str0" d="M784 1038c44,-21 80,-56 100,-101l135 56 -235 45z"/>
   <path class="fil3 str0" d="M1019 993c-35,80 -100,144 -180,180l-55 -135 235 -45z"/>
   <path class="fil3 str0" d="M825 526l0 2 -55 132c-23,-8 -47,-12 -72,-12 -25,0 -49,4 -71,12l198 -134z"/>
   <path class="fil3 str0" d="M698 502c45,0 88,8 127,24l-198 134 -56 -134c40,-16 83,-24 127,-24z"/>
  </g>
  <g>
   <rect class="fil1" x="2615" y="331" width="1017" height="1018" rx="51" ry="68"/>
   <path class="fil2" d="M3632 828l0 452c0,38 -31,68 -68,68l-420 0 -255 -244c-72,-66 -116,-160 -116,-265 0,-198 159,-358 355,-358 98,0 187,40 251,105l253 242z"/>
   <path class="fil4 str1" d="M3375 1097c-27,26 -57,47 -91,64 -46,22 -94,34 -144,36l0 -152c46,-3 85,-22 118,-58l1 -2 116 112zm98 -180c-3,14 -6,28 -11,41 -12,37 -30,71 -54,102 -5,6 -10,13 -16,19l-118 -114c11,-15 18,-31 24,-48l175 0zm-81 -317c27,29 48,62 62,99 9,20 15,41 19,63l-175 0c-5,-17 -13,-33 -23,-48l117 -114zm-252 -118c42,1 83,10 123,26 42,17 79,42 112,74l-115 112 -2 -2c-33,-36 -72,-56 -118,-59l0 -151zm-145 503l2 1c32,36 72,56 118,59l0 152c-43,-1 -83,-10 -122,-26 -43,-17 -80,-42 -113,-75l115 -111zm-51 -133c2,43 14,81 36,113l-117 113c-27,-30 -48,-63 -63,-99 -16,-40 -25,-82 -26,-127l170 0zm-64 -270c32,-32 69,-57 112,-74 39,-16 80,-25 123,-26l0 151c-46,3 -86,23 -118,59l-2 2 -115 -112zm-106 245c1,-45 10,-87 26,-127 15,-37 36,-70 63,-100l117 114c-22,32 -34,70 -36,113l-170 0z"/>
  </g>
  <g>
   <circle class="fil1" cx="4398" cy="840" r="507"/>
   <path class="fil2" d="M4902 889c-25,257 -241,458 -504,458 -15,0 -29,-1 -43,-2l-226 -278c-51,-62 -82,-141 -82,-228 0,-197 159,-357 356,-357 110,0 208,50 274,130l225 277z"/>
   <path class="fil4 str1" d="M4649 1097c-27,26 -57,47 -91,64 -46,22 -94,34 -144,36l0 -152c46,-3 85,-22 118,-58l1 -2 116 112zm98 -180c-3,14 -6,28 -11,41 -12,37 -30,71 -54,102 -5,6 -10,13 -16,19l-118 -114c11,-15 18,-31 24,-48l175 0zm-80 -317c26,29 47,62 61,99 9,20 15,41 19,63l-175 0c-5,-17 -13,-33 -23,-48l118 -114zm-253 -118c42,1 83,10 123,26 42,17 79,42 112,74l-115 112 -2 -2c-33,-36 -72,-56 -118,-59l0 -151zm-145 503l2 1c32,36 72,56 118,59l0 152c-43,-1 -83,-10 -122,-26 -43,-17 -80,-42 -113,-75l115 -111zm-51 -133c2,43 14,81 36,113l-117 113c-27,-30 -48,-63 -63,-99 -16,-40 -25,-82 -26,-127l170 0zm-64 -270c32,-32 69,-57 112,-74 39,-16 80,-25 123,-26l0 151c-46,3 -86,23 -118,59l-2 2 -115 -112zm-106 245c1,-45 10,-87 26,-127 15,-37 36,-70 63,-100l117 114c-22,32 -34,70 -36,113l-170 0z"/>
  </g>
  <g>
   <circle class="fil1" cx="1873" cy="840" r="507"/>
   <path class="fil2" d="M2379 879c-20,251 -222,451 -474,467 -7,0 -14,0 -20,0 -15,0 -29,-1 -43,-2l-226 -277c-50,-61 -80,-140 -80,-226 0,-197 158,-357 354,-357 109,0 208,50 273,130l216 265z"/>
   <g id="_535152120">
    <path class="fil3 str0" d="M2074 754c-21,-44 -57,-80 -101,-100l56 -135 45 235z"/>
    <path class="fil3 str0" d="M2029 519l2 1c79,36 142,99 177,179l-134 55 -45 -235z"/>
    <path class="fil3 str0" d="M1803 654l-2 0c-44,21 -79,56 -99,100l-135 -55 236 -45z"/>
    <path class="fil3 str0" d="M1567 699c35,-80 100,-145 180,-180l56 135 -236 45z"/>
    <path class="fil3 str0" d="M1561 713l3 1 132 54c-8,23 -13,46 -13,72 0,25 5,49 13,71l-135 -198z"/>
    <path class="fil3 str0" d="M1561 967c-15,-40 -23,-83 -23,-127 0,-45 8,-88 23,-127l135 198 -135 56z"/>
    <path class="fil3 str0" d="M1702 925c1,2 2,5 3,7 21,41 56,74 98,93l-56 135 -45 -235z"/>
    <path class="fil3 str0" d="M1747 1160c-80,-35 -145,-99 -180,-180l135 -55 45 235z"/>
    <path class="fil3 str0" d="M1761 1166l56 -135c22,8 46,13 71,13 25,0 49,-5 71,-13l-198 135z"/>
    <path class="fil3 str0" d="M2015 1166c-40,15 -82,24 -127,24 -45,0 -88,-9 -127,-24l198 -135 56 135z"/>
    <path class="fil3 str0" d="M1973 1025c44,-20 80,-56 101,-100l134 55 -235 45z"/>
    <path class="fil3 str0" d="M2208 980c-35,81 -99,145 -179,180l-56 -135 235 -45z"/>
    <path class="fil3 str0" d="M2015 513l-1 2 -55 133c-22,-8 -46,-13 -71,-13 -25,0 -49,5 -71,13l198 -135z"/>
    <path class="fil3 str0" d="M1888 489c45,0 87,9 127,24l-198 135 -56 -135c39,-15 82,-24 127,-24z"/>
   </g>
  </g>
  <rect class="fil5" x="175" y="1534" width="1017" height="1018" rx="51" ry="68"/>
  <g>
   <path class="fil6" d="M1192 2100l0 383c0,38 -31,68 -68,68l-470 0 -227 -285c-50,-61 -80,-139 -80,-223 0,-194 157,-352 351,-352 115,0 217,56 281,142l213 267zm-683 22l9 18c-3,-5 -6,-11 -9,-18zm9 18l10 17c-3,-5 -7,-11 -10,-17zm10 17l12 16c-4,-5 -8,-10 -12,-16zm-34 -93l4 20c-2,-7 -3,-14 -4,-20zm4 20l5 20c-2,-7 -4,-13 -5,-20zm5 20l6 18c-2,-6 -4,-12 -6,-18zm-5 -103l-4 21c1,-7 2,-14 4,-21zm-4 21l-1 21c0,-7 1,-14 1,-21zm-1 21l1 21c0,-7 -1,-14 -1,-21zm25 -98l-9 18c3,-6 6,-12 9,-18zm-9 18l-6 19c2,-7 4,-13 6,-19zm-6 19l-5 19c1,-6 3,-13 5,-19zm50 -84l-13 14c4,-5 9,-10 13,-14zm-13 14l-12 16c4,-5 8,-11 12,-16zm-12 16l-10 17c3,-6 7,-12 10,-17zm73 -66l-17 11c5,-4 11,-7 17,-11zm-17 11l-16 11c5,-4 10,-8 16,-11zm-16 11l-15 14c5,-5 10,-9 15,-14zm89 -42l-20 5c7,-2 13,-4 20,-5zm-20 5l-19 7c7,-3 13,-5 19,-7zm-19 7l-17 8c5,-3 11,-6 17,-8zm101 -15l-21 -1c7,0 14,0 21,1zm-21 -1l-21 1c7,-1 14,-1 21,-1zm-21 1l-20 3c7,-2 13,-3 20,-3zm101 15l-19 -7c6,2 13,4 19,7zm-19 -7l-20 -5c7,1 14,3 20,5zm-20 -5l-20 -3c7,0 14,1 20,3zm89 42l-15 -11c5,3 10,7 15,11zm-15 -11l-17 -11c6,4 11,7 17,11zm-17 -11l-18 -8c6,2 12,5 18,8zm64 55l-4 -5c2,2 3,3 4,5zm-4 -5l0 0 0 0 0 0 -13 -14c5,4 9,9 13,14l0 0zm-13 -14l-15 -14c5,5 10,9 15,14z"/>
  </g>
  <path class="fil7 str2" d="M884 1957c-20,-44 -56,-80 -100,-100l55 -135 45 235z"/>
  <path class="fil8 str3" d="M839 1722l3 1c79,36 142,99 177,179l-135 55 -45 -235z"/>
  <path class="fil7 str2" d="M613 1857l-1 0c-44,21 -79,57 -99,100l-135 -55 235 -45z"/>
  <path class="fil8 str3" d="M378 1902c35,-80 99,-145 179,-180l56 135 -235 45z"/>
  <path class="fil7 str2" d="M372 1916l3 1 132 54c-8,23 -13,47 -13,72 0,25 5,49 13,71l-135 -198z"/>
  <path class="fil8 str3" d="M372 2170c-15,-40 -24,-83 -24,-127 0,-45 9,-88 24,-127l135 198 -135 56z"/>
  <path class="fil7 str2" d="M513 2128c1,2 2,5 3,7 21,41 55,74 97,93l-56 135 -44 -235z"/>
  <path class="fil8 str3" d="M557 2363c-80,-35 -144,-99 -179,-179l135 -56 44 235z"/>
  <path class="fil7 str2" d="M571 2369l56 -135c22,8 46,13 71,13 25,0 49,-5 72,-13l-199 135z"/>
  <path class="fil8 str3" d="M825 2369c-39,15 -82,24 -127,24 -44,0 -87,-9 -127,-24l199 -135 55 135z"/>
  <path class="fil7 str2" d="M784 2228c44,-20 80,-56 100,-100l135 56 -235 44z"/>
  <path class="fil8 str3" d="M1019 2184c-35,80 -100,144 -180,179l-55 -135 235 -44z"/>
  <path class="fil7 str2" d="M825 1716l0 2 -55 133c-23,-8 -47,-13 -72,-13 -25,0 -49,5 -71,13l198 -135z"/>
  <path class="fil8 str3" d="M698 1692c45,0 88,9 127,24l-198 135 -56 -135c40,-15 83,-24 127,-24z"/>
  <rect class="fil5" x="2615" y="1521" width="1017" height="1018" rx="51" ry="68"/>
  <path class="fil6" d="M3632 2019l0 452c0,37 -31,68 -68,68l-420 0 -255 -245c-72,-65 -116,-160 -116,-265 0,-197 159,-358 355,-358 98,0 187,40 251,105l253 243z"/>
  <path class="fil9 str4" d="M3375 2288c-27,26 -57,47 -91,64 -46,22 -94,34 -144,36l0 -152c46,-3 85,-23 118,-59l1 -1 116 112zm98 -180c-3,14 -6,27 -11,41 -12,37 -30,71 -54,101 -5,7 -10,14 -16,20l-118 -114c11,-15 18,-31 24,-48l175 0zm-81 -318c27,30 48,63 62,100 9,20 15,41 19,63l-175 0c-5,-18 -13,-34 -23,-49l117 -114zm-252 -117c42,1 83,10 123,26 42,17 79,42 112,73l-115 113 -2 -3c-33,-36 -72,-55 -118,-58l0 -151zm-145 502l2 2c32,36 72,56 118,59l0 152c-43,-2 -83,-10 -122,-26 -43,-18 -80,-43 -113,-75l115 -112zm-51 -133c2,43 14,81 36,114l-117 113c-27,-30 -48,-63 -63,-100 -16,-39 -25,-82 -26,-127l170 0zm-64 -269c32,-32 69,-57 112,-74 39,-16 80,-25 123,-26l0 151c-46,3 -86,22 -118,58l-2 3 -115 -112zm-106 245c1,-45 10,-88 26,-127 15,-37 36,-70 63,-100l117 114c-22,32 -34,70 -36,113l-170 0z"/>
  <circle class="fil5" cx="4398" cy="2030" r="507"/>
  <path class="fil6" d="M4902 2080c-25,257 -241,457 -504,457 -15,0 -29,0 -43,-1l-226 -278c-51,-62 -82,-141 -82,-228 0,-197 159,-358 356,-358 110,0 208,51 274,131l225 277z"/>
  <path class="fil9 str4" d="M4649 2288c-27,26 -57,47 -91,64 -46,22 -94,34 -144,36l0 -152c46,-3 85,-23 118,-59l1 -1 116 112zm98 -180c-3,14 -6,27 -11,41 -12,37 -30,71 -54,101 -5,7 -10,14 -16,20l-118 -114c11,-15 18,-31 24,-48l175 0zm-80 -318c26,30 47,63 61,100 9,20 15,41 19,63l-175 0c-5,-18 -13,-34 -23,-49l118 -114zm-253 -117c42,1 83,10 123,26 42,17 79,42 112,73l-115 113 -2 -3c-33,-36 -72,-55 -118,-58l0 -151zm-145 502l2 2c32,36 72,56 118,59l0 152c-43,-2 -83,-10 -122,-26 -43,-18 -80,-43 -113,-75l115 -112zm-51 -133c2,43 14,81 36,114l-117 113c-27,-30 -48,-63 -63,-100 -16,-39 -25,-82 -26,-127l170 0zm-64 -269c32,-32 69,-57 112,-74 39,-16 80,-25 123,-26l0 151c-46,3 -86,22 -118,58l-2 3 -115 -112zm-106 245c1,-45 10,-88 26,-127 15,-37 36,-70 63,-100l117 114c-22,32 -34,70 -36,113l-170 0z"/>
  <circle class="fil5" cx="1873" cy="2030" r="507"/>
  <path class="fil6" d="M2379 2070c-20,251 -222,451 -474,466 -7,1 -14,1 -20,1 -15,0 -29,-1 -43,-2l-226 -277c-50,-62 -80,-141 -80,-227 0,-197 158,-356 354,-356 109,0 208,50 273,129l216 266z"/>
  <g>
   <path class="fil7 str2" d="M2074 1945c-21,-44 -57,-80 -101,-101l56 -134 45 235z"/>
   <path class="fil8 str3" d="M2029 1710l2 1c79,35 142,99 177,178l-134 56 -45 -235z"/>
   <path class="fil7 str2" d="M1803 1844l-2 1c-44,21 -79,56 -99,100l-135 -56 236 -45z"/>
   <path class="fil8 str3" d="M1567 1889c35,-80 100,-144 180,-179l56 134 -236 45z"/>
   <path class="fil7 str2" d="M1561 1903l3 1 132 55c-8,22 -13,46 -13,71 0,25 5,49 13,71l-135 -198z"/>
   <path class="fil8 str3" d="M1561 2157c-15,-39 -23,-82 -23,-127 0,-45 8,-87 23,-127l135 198 -135 56z"/>
   <path class="fil7 str2" d="M1702 2115c1,3 2,5 3,8 21,41 56,74 98,93l-56 135 -45 -236z"/>
   <path class="fil8 str3" d="M1747 2351c-80,-35 -145,-100 -180,-180l135 -56 45 236z"/>
   <path class="fil7 str2" d="M1761 2357l56 -135c22,8 46,13 71,13 25,0 49,-5 71,-13l-198 135z"/>
   <path class="fil8 str3" d="M2015 2357c-40,15 -82,23 -127,23 -45,0 -88,-8 -127,-23l198 -135 56 135z"/>
   <path class="fil7 str2" d="M1973 2216c44,-20 80,-56 101,-101l134 56 -235 45z"/>
   <path class="fil8 str3" d="M2208 2171c-35,80 -99,145 -179,180l-56 -135 235 -45z"/>
   <path class="fil7 str2" d="M2015 1704l-1 2 -55 133c-22,-9 -46,-13 -71,-13 -25,0 -49,4 -71,13l198 -135z"/>
   <path class="fil8 str3" d="M1888 1680c45,0 87,9 127,24l-198 135 -56 -135c39,-15 82,-24 127,-24z"/>
  </g>
  <rect class="fil10" x="175" y="2716" width="1017" height="1018" rx="51" ry="68"/>
  <g>
   <path class="fil11" d="M1192 3282l0 383c0,38 -31,68 -68,68l-470 0 -227 -285c-50,-61 -80,-139 -80,-224 0,-194 157,-351 351,-351 115,0 217,56 281,141l213 268zm-683 22l9 18c-3,-6 -6,-12 -9,-18zm9 18l10 17c-3,-5 -7,-11 -10,-17zm10 17l12 16c-4,-5 -8,-11 -12,-16zm-34 -94l4 21c-2,-7 -3,-14 -4,-21zm4 21l5 19c-2,-6 -4,-13 -5,-19zm5 19l6 19c-2,-6 -4,-12 -6,-19zm-5 -102l-4 20c1,-6 2,-13 4,-20zm-4 20l-1 21c0,-7 1,-14 1,-21zm-1 21l1 21c0,-7 -1,-14 -1,-21zm25 -97l-9 18c3,-6 6,-12 9,-18zm-9 18l-6 18c2,-6 4,-12 6,-18zm-6 18l-5 20c1,-7 3,-13 5,-20zm50 -84l-13 15c4,-5 9,-10 13,-15zm-13 15l-12 16c4,-6 8,-11 12,-16zm-12 16l-10 17c3,-6 7,-12 10,-17zm73 -66l-17 10c5,-3 11,-7 17,-10zm-17 10l-16 12c5,-4 10,-8 16,-12zm-16 12l-15 13c5,-4 10,-9 15,-13zm89 -42l-20 5c7,-2 13,-4 20,-5zm-20 5l-19 7c7,-3 13,-5 19,-7zm-19 7l-17 8c5,-3 11,-6 17,-8zm101 -15l-21 -2c7,0 14,1 21,2zm-21 -2l-21 2c7,-1 14,-2 21,-2zm-21 2l-20 3c7,-2 13,-3 20,-3zm101 15l-19 -7c6,2 13,4 19,7zm-19 -7l-20 -5c7,1 14,3 20,5zm-20 -5l-20 -3c7,0 14,1 20,3zm89 42l-15 -12c5,4 10,8 15,12zm-15 -12l-17 -10c6,3 11,7 17,10zm-17 -10l-18 -8c6,2 12,5 18,8zm64 55l-4 -5c2,2 3,3 4,5zm-4 -5l0 0 0 0 0 0 -13 -15c5,5 9,10 13,15l0 0zm-13 -15l-15 -13c5,4 10,9 15,13z"/>
  </g>
  <path class="fil11 str5" d="M884 3139c-20,-44 -56,-80 -100,-100l55 -135 45 235z"/>
  <path class="fil11 str5" d="M839 2904l3 1c79,35 142,99 177,178l-135 56 -45 -235z"/>
  <path class="fil11 str5" d="M613 3039l-1 0c-44,21 -79,56 -99,100l-135 -56 235 -44z"/>
  <path class="fil11 str5" d="M378 3083c35,-80 99,-144 179,-179l56 135 -235 44z"/>
  <path class="fil11 str5" d="M372 3097l3 2 132 54c-8,22 -13,46 -13,71 0,25 5,49 13,72l-135 -199z"/>
  <path class="fil11 str5" d="M372 3351c-15,-39 -24,-82 -24,-127 0,-44 9,-87 24,-127l135 199 -135 55z"/>
  <path class="fil11 str5" d="M513 3310c1,2 2,4 3,7 21,41 55,74 97,93l-56 135 -44 -235z"/>
  <path class="fil11 str5" d="M557 3545c-80,-35 -144,-100 -179,-180l135 -55 44 235z"/>
  <path class="fil11 str5" d="M571 3551l56 -135c22,8 46,13 71,13 25,0 49,-5 72,-13l-199 135z"/>
  <path class="fil11 str5" d="M825 3551c-39,15 -82,24 -127,24 -44,0 -87,-9 -127,-24l199 -135 55 135z"/>
  <path class="fil11 str5" d="M784 3410c44,-20 80,-56 100,-100l135 55 -235 45z"/>
  <path class="fil11 str5" d="M1019 3365c-35,80 -100,145 -180,180l-55 -135 235 -45z"/>
  <path class="fil11 str5" d="M825 2898l0 2 -55 133c-23,-8 -47,-13 -72,-13 -25,0 -49,5 -71,13l198 -135z"/>
  <path class="fil11 str5" d="M698 2874c45,0 88,9 127,24l-198 135 -56 -135c40,-15 83,-24 127,-24z"/>
  <rect class="fil10" x="2615" y="2703" width="1017" height="1018" rx="51" ry="68"/>
  <path class="fil11" d="M3632 3201l0 452c0,37 -31,68 -68,68l-420 0 -255 -245c-72,-65 -116,-160 -116,-265 0,-198 159,-358 355,-358 98,0 187,40 251,105l253 243z"/>
  <path class="fil12 str6" d="M3375 3470c-27,26 -57,47 -91,64 -46,22 -94,34 -144,36l0 -152c46,-3 85,-23 118,-59l1 -2 116 113zm98 -181c-3,14 -6,28 -11,42 -12,37 -30,70 -54,101 -5,7 -10,13 -16,20l-118 -114c11,-15 18,-31 24,-49l175 0zm-81 -317c27,29 48,62 62,99 9,21 15,42 19,64l-175 0c-5,-18 -13,-34 -23,-49l117 -114zm-252 -118c42,2 83,11 123,27 42,17 79,41 112,73l-115 112 -2 -2c-33,-36 -72,-56 -118,-58l0 -152zm-145 503l2 2c32,36 72,56 118,59l0 152c-43,-2 -83,-11 -122,-27 -43,-17 -80,-42 -113,-74l115 -112zm-51 -133c2,43 14,81 36,113l-117 114c-27,-30 -48,-63 -63,-100 -16,-39 -25,-82 -26,-127l170 0zm-64 -269c32,-33 69,-57 112,-75 39,-16 80,-24 123,-26l0 152c-46,3 -86,22 -118,58l-2 3 -115 -112zm-106 245c1,-45 10,-88 26,-128 15,-36 36,-69 63,-99l117 113c-22,33 -34,70 -36,114l-170 0z"/>
  <circle class="fil10" cx="4398" cy="3212" r="507"/>
  <path class="fil11" d="M4902 3262c-25,256 -241,457 -504,457 -15,0 -29,-1 -43,-2l-226 -278c-51,-61 -82,-141 -82,-227 0,-198 159,-358 356,-358 110,0 208,51 274,130l225 278z"/>
  <path class="fil12 str6" d="M4649 3470c-27,26 -57,47 -91,64 -46,22 -94,34 -144,36l0 -152c46,-3 85,-23 118,-59l1 -2 116 113zm98 -181c-3,14 -6,28 -11,42 -12,37 -30,70 -54,101 -5,7 -10,13 -16,20l-118 -114c11,-15 18,-31 24,-49l175 0zm-80 -317c26,29 47,62 61,99 9,21 15,42 19,64l-175 0c-5,-18 -13,-34 -23,-49l118 -114zm-253 -118c42,2 83,11 123,27 42,17 79,41 112,73l-115 112 -2 -2c-33,-36 -72,-56 -118,-58l0 -152zm-145 503l2 2c32,36 72,56 118,59l0 152c-43,-2 -83,-11 -122,-27 -43,-17 -80,-42 -113,-74l115 -112zm-51 -133c2,43 14,81 36,113l-117 114c-27,-30 -48,-63 -63,-100 -16,-39 -25,-82 -26,-127l170 0zm-64 -269c32,-33 69,-57 112,-75 39,-16 80,-24 123,-26l0 152c-46,3 -86,22 -118,58l-2 3 -115 -112zm-106 245c1,-45 10,-88 26,-128 15,-36 36,-69 63,-99l117 113c-22,33 -34,70 -36,114l-170 0z"/>
  <circle class="fil10" cx="1873" cy="3212" r="507"/>
  <path class="fil11" d="M2379 3251c-20,252 -222,452 -474,467 -7,0 -14,1 -20,1 -15,0 -29,-1 -43,-2l-226 -277c-50,-62 -80,-141 -80,-227 0,-197 158,-357 354,-357 109,0 208,51 273,130l216 265z"/>
  <g>
   <path class="fil11 str5" d="M2074 3127c-21,-45 -57,-80 -101,-101l56 -135 45 236z"/>
   <path class="fil11 str5" d="M2029 2891l2 2c79,35 142,99 177,178l-134 56 -45 -236z"/>
   <path class="fil11 str5" d="M1803 3026l-2 1c-44,20 -79,56 -99,100l-135 -56 236 -45z"/>
   <path class="fil11 str5" d="M1567 3071c35,-80 100,-144 180,-180l56 135 -236 45z"/>
   <path class="fil11 str5" d="M1561 3085l3 1 132 55c-8,22 -13,46 -13,71 0,25 5,49 13,71l-135 -198z"/>
   <path class="fil11 str5" d="M1561 3339c-15,-39 -23,-82 -23,-127 0,-45 8,-88 23,-127l135 198 -135 56z"/>
   <path class="fil11 str5" d="M1702 3297c1,3 2,5 3,7 21,41 56,75 98,94l-56 135 -45 -236z"/>
   <path class="fil11 str5" d="M1747 3533c-80,-36 -145,-100 -180,-180l135 -56 45 236z"/>
   <path class="fil11 str5" d="M1761 3538l56 -134c22,8 46,12 71,12 25,0 49,-4 71,-12l-198 134z"/>
   <path class="fil11 str5" d="M2015 3538c-40,16 -82,24 -127,24 -45,0 -88,-8 -127,-24l198 -134 56 134z"/>
   <path class="fil11 str5" d="M1973 3398c44,-21 80,-56 101,-101l134 56 -235 45z"/>
   <path class="fil11 str5" d="M2208 3353c-35,80 -99,144 -179,180l-56 -135 235 -45z"/>
   <path class="fil11 str5" d="M2015 2886l-1 2 -55 132c-22,-8 -46,-12 -71,-12 -25,0 -49,4 -71,12l198 -134z"/>
   <path class="fil11 str5" d="M1888 2862c45,0 87,8 127,24l-198 134 -56 -134c39,-16 82,-24 127,-24z"/>
  </g>
 </g>
</svg>
