<?xml version="1.0" encoding="UTF-8"?>
<!DOCTYPE svg PUBLIC "-//W3C//DTD SVG 1.1//EN" "http://www.w3.org/Graphics/SVG/1.1/DTD/svg11.dtd">
<!-- Creator: CorelDRAW X7 -->
<svg xmlns="http://www.w3.org/2000/svg" xml:space="preserve" width="50.7998mm" height="50.7998mm" version="1.1" style="shape-rendering:geometricPrecision; text-rendering:geometricPrecision; image-rendering:optimizeQuality; fill-rule:evenodd; clip-rule:evenodd"
viewBox="0 0 5080 5080"
 xmlns:xlink="http://www.w3.org/1999/xlink">
 <defs>
  <style type="text/css">
   <![CDATA[
    .str2 {stroke:#0A2E15;stroke-width:7.62;stroke-linecap:round;stroke-linejoin:round;stroke-opacity:0.019608}
    .str3 {stroke:#1C472A;stroke-width:7.62;stroke-linecap:round;stroke-linejoin:round;stroke-opacity:0.019608}
    .str0 {stroke:#0A2E15;stroke-width:7.62;stroke-linecap:round;stroke-linejoin:round}
    .str1 {stroke:#1C472A;stroke-width:7.62;stroke-linecap:round;stroke-linejoin:round}
    .fil1 {fill:#0A2E15}
    .fil2 {fill:#1C472A}
    .fil3 {fill:#FEFEFE;fill-opacity:0.019608}
    .fil0 {fill:url(#id0)}
    .fil5 {fill:url(#id1);fill-rule:nonzero}
    .fil4 {fill:url(#id2);fill-rule:nonzero}
   ]]>
  </style>
  <linearGradient id="id0" gradientUnits="userSpaceOnUse" x1="-0.01" y1="5079.99" x2="5079.99" y2="-0.01">
   <stop offset="0" style="stop-opacity:1; stop-color:#E6E7E8"/>
   <stop offset="1" style="stop-opacity:1; stop-color:#FEFEFE"/>
  </linearGradient>
  <linearGradient id="id1" gradientUnits="userSpaceOnUse" x1="4712.09" y1="4915.46" x2="4712.09" y2="4969.24">
   <stop offset="0" style="stop-opacity:1; stop-color:#1C472A"/>
   <stop offset="1" style="stop-opacity:1; stop-color:#0A2E15"/>
  </linearGradient>
  <linearGradient id="id2" gradientUnits="userSpaceOnUse" xlink:href="#id1" x1="2539.99" y1="3239.8" x2="2539.99" y2="3474.26">
  </linearGradient>
 </defs>
 <g id="Layer_x0020_1">
  <metadata id="CorelCorpID_0Corel-Layer"/>
  <polygon class="fil0" points="0,0 5080,0 5080,5080 0,5080 "/>
  <g id="_240661576">
   <path class="fil1 str0" d="M2891 1949c-40,-87 -110,-158 -197,-198l109 -263 88 461z"/>
   <path class="fil2 str1" d="M2803 1488l5 2c154,69 278,194 347,349l-264 110 -88 -461z"/>
   <path class="fil1 str0" d="M2360 1751l-3 2c-85,40 -154,110 -194,196l-264 -110 461 -88z"/>
   <path class="fil2 str1" d="M1899 1839c69,-156 195,-282 352,-351l109 263 -461 88z"/>
   <path class="fil1 str0" d="M1888 1867l6 2 258 107c-16,43 -25,90 -25,139 0,49 9,96 25,140l-264 -388z"/>
   <path class="fil2 str1" d="M1888 2364c-30,-77 -46,-161 -46,-249 0,-87 16,-171 46,-248l264 388 -264 109z"/>
   <path class="fil1 str0" d="M2163 2282c2,5 5,9 7,14 41,81 108,145 190,183l-109 264 -88 -461z"/>
   <path class="fil2 str1" d="M2251 2743c-157,-69 -283,-195 -352,-352l264 -109 88 461z"/>
   <path class="fil1 str0" d="M2278 2754l110 -264c43,17 90,25 139,25 49,0 96,-8 139,-25l-388 264z"/>
   <path class="fil2 str1" d="M2776 2754c-77,30 -161,47 -249,47 -88,0 -172,-17 -249,-47l388 -264 110 264z"/>
   <path class="fil1 str0" d="M2694 2479c87,-40 157,-110 197,-197l264 109 -461 88z"/>
   <path class="fil2 str1" d="M3155 2391c-69,157 -195,283 -352,352l-109 -264 461 -88z"/>
   <path class="fil1 str0" d="M2776 1476l-2 4 -108 260c-43,-16 -90,-25 -139,-25 -49,0 -96,9 -139,25l388 -264z"/>
   <path class="fil2 str1" d="M2527 1430c88,0 172,16 249,46l-388 264 -110 -264c77,-30 161,-46 249,-46z"/>
  </g>
  <g id="_242265792">
   <path class="fil3 str2" d="M1124 628c-37,-80 -101,-145 -182,-181l101 -243 81 424z"/>
   <path class="fil3 str3" d="M1043 204l4 2c143,64 257,179 320,322l-243 100 -81 -424z"/>
   <path class="fil3 str2" d="M636 447l-3 1c-79,37 -143,101 -179,180l-243 -100 425 -81z"/>
   <path class="fil3 str3" d="M211 528c64,-145 180,-261 324,-324l101 243 -425 81z"/>
   <path class="fil3 str2" d="M201 553l5 2 238 98c-15,40 -24,84 -24,129 0,45 9,88 24,128l-243 -357z"/>
   <path class="fil3 str3" d="M201 1011c-28,-71 -43,-148 -43,-229 0,-81 15,-158 43,-229l243 357 -243 101z"/>
   <path class="fil3 str2" d="M454 935c2,5 4,9 6,13 38,74 100,134 176,169l-101 243 -81 -425z"/>
   <path class="fil3 str3" d="M535 1360c-144,-64 -260,-180 -324,-324l243 -101 81 425z"/>
   <path class="fil3 str2" d="M560 1370l101 -243c40,15 83,23 128,23 45,0 88,-8 128,-23l-357 243z"/>
   <path class="fil3 str3" d="M1018 1370c-71,28 -148,43 -229,43 -81,0 -158,-15 -229,-43l357 -243 101 243z"/>
   <path class="fil3 str2" d="M943 1117c80,-37 144,-102 181,-182l243 101 -424 81z"/>
   <path class="fil3 str3" d="M1367 1036c-64,144 -180,260 -324,324l-100 -243 424 -81z"/>
   <path class="fil3 str2" d="M1018 193l-1 4 -100 239c-40,-15 -83,-23 -128,-23 -45,0 -88,8 -128,23l357 -243z"/>
   <path class="fil3 str3" d="M789 151c81,0 158,15 229,42l-357 243 -101 -243c71,-27 148,-42 229,-42z"/>
  </g>
  <path class="fil4" d="M1245 3261c0,162 55,197 127,197 60,-1 121,0 179,-24l0 -55c0,0 -85,7 -151,7 -53,0 -71,-20 -71,-123 0,-122 26,-127 71,-127 64,0 146,4 146,4l0 -54c-59,-16 -136,-21 -174,-21 -74,0 -127,33 -127,196zm430 6c0,-120 22,-131 90,-131 69,0 89,11 89,131 0,111 -24,119 -89,119 -62,0 -90,-9 -90,-119zm-84 0c0,138 42,191 174,191 133,0 174,-48 174,-191 0,-154 -43,-202 -174,-202 -129,0 -174,44 -174,202zm486 0c0,-120 21,-131 90,-131 69,0 89,11 89,131 0,111 -25,119 -89,119 -62,0 -90,-9 -90,-119zm-85 0c0,138 42,191 175,191 133,0 173,-48 173,-191 0,-154 -42,-202 -173,-202 -130,0 -175,44 -175,202zm494 -63c0,-32 8,-65 56,-65l49 0c43,0 56,21 57,65 2,35 -11,70 -56,70l-52 0c-44,0 -54,-34 -54,-70zm0 326l0 -76c0,0 14,4 31,4l102 0c34,0 42,14 42,40l0 34c0,27 -7,47 -45,47l-78 0c-26,0 -52,-5 -52,-49l0 0zm-86 -154c0,31 13,56 33,69l-32 39 0 54c0,77 50,112 119,112l109 0c95,0 117,-61 117,-112l0 -43c0,-72 -41,-109 -107,-109l-132 0c-16,0 -29,-4 -29,-21 0,-18 18,-19 29,-19l98 0c107,0 127,-83 127,-135 0,-48 -10,-62 -17,-78l49 -13 0 -53 -232 1c-84,0 -131,45 -131,136 0,39 11,87 43,107 -31,8 -44,37 -44,65zm491 -172c0,-32 9,-65 56,-65l49 0c44,0 56,21 58,65 1,35 -11,70 -57,70l-52 0c-43,0 -54,-34 -54,-70zm0 326l0 -76c0,0 14,4 31,4l102 0c35,0 43,14 43,40l0 34c0,27 -8,47 -46,47l-78 0c-26,0 -52,-5 -52,-49l0 0zm-86 -154c0,31 13,56 34,69l-32 39 0 54c0,77 50,112 118,112l109 0c95,0 117,-61 117,-112l0 -43c0,-72 -41,-109 -107,-109l-131 0c-16,0 -30,-4 -30,-21 0,-18 18,-19 30,-19l98 0c106,0 127,-83 127,-135 0,-48 -10,-62 -18,-78l49 -13 0 -53 -232 1c-83,0 -130,45 -130,136 0,39 10,87 42,107 -31,8 -44,37 -44,65zm473 -144c0,-95 25,-98 89,-98 59,0 69,8 69,67 0,21 -12,31 -37,31l-121 0zm-84 27c0,146 29,199 127,199 60,0 136,-2 192,-21l0 -59c-55,9 -95,8 -157,8 -55,0 -78,-10 -78,-87l137 0c70,0 105,-30 105,-95 0,-128 -53,-139 -158,-139 -120,0 -168,27 -168,194zm388 195l84 0 0 -263c36,-33 67,-43 115,-43 21,0 45,2 54,3l0 -82c-9,-4 -28,-5 -46,-5 -53,0 -91,28 -123,53l-16 -49 -68 0 0 386z"/>
  <path class="fil5" d="M4415 4920c0,38 13,45 29,45 14,0 28,1 41,-5l0 -13c0,0 -19,2 -35,2 -11,0 -16,-5 -16,-28 0,-28 6,-29 16,-29 15,0 34,1 34,1l0 -13c-14,-4 -31,-5 -40,-5 -17,0 -29,8 -29,45zm99 2c0,-28 5,-30 20,-30 16,0 21,2 21,30 0,25 -6,27 -21,27 -14,0 -20,-2 -20,-27zm-20 0c0,31 10,43 40,43 31,0 40,-11 40,-43 0,-36 -10,-47 -40,-47 -29,0 -40,10 -40,47zm112 0c0,-28 5,-30 20,-30 16,0 21,2 21,30 0,25 -6,27 -21,27 -14,0 -20,-2 -20,-27zm-20 0c0,31 10,43 40,43 31,0 40,-11 40,-43 0,-36 -9,-47 -40,-47 -29,0 -40,10 -40,47zm114 -15c0,-7 2,-15 13,-15l11 0c10,0 13,5 13,15 0,8 -3,16 -13,16l-12 0c-10,0 -12,-7 -12,-16zm0 75l0 -17c0,0 3,0 7,0l23 0c8,0 10,4 10,10l0 7c0,7 -2,11 -11,11l-17 0c-6,0 -12,-1 -12,-11l0 0zm-20 -35c0,7 3,13 8,16l-8 9 0 12c0,17 12,26 27,26l25 0c22,0 27,-14 27,-26l0 -10c0,-16 -9,-25 -24,-25l-30 0c-4,0 -7,-1 -7,-5 0,-4 4,-4 7,-4l22 0c25,0 29,-19 29,-31 0,-11 -2,-14 -4,-18l11 -3 0 -12 -53 0c-19,0 -30,10 -30,31 0,9 3,20 10,25 -7,2 -10,8 -10,15zm113 -40c0,-7 2,-15 13,-15l11 0c10,0 13,5 13,15 0,8 -3,16 -13,16l-12 0c-10,0 -12,-7 -12,-16zm0 75l0 -17c0,0 3,0 7,0l23 0c8,0 10,4 10,10l0 7c0,7 -2,11 -11,11l-17 0c-6,0 -12,-1 -12,-11l0 0zm-20 -35c0,7 3,13 8,16l-8 9 0 12c0,17 12,26 27,26l25 0c22,0 27,-14 27,-26l0 -10c0,-16 -9,-25 -24,-25l-30 0c-4,0 -7,-1 -7,-5 0,-4 4,-4 7,-4l22 0c25,0 29,-19 29,-31 0,-11 -2,-14 -4,-18l11 -3 0 -12 -53 0c-19,0 -30,10 -30,31 0,9 3,20 10,25 -7,2 -10,8 -10,15zm108 -33c0,-22 6,-23 21,-23 13,0 16,2 16,16 0,4 -3,7 -9,7l-28 0zm-19 6c0,33 7,45 29,45 14,0 31,0 44,-4l0 -14c-12,2 -21,2 -36,2 -12,0 -18,-2 -18,-20l32 0c16,0 24,-7 24,-22 0,-29 -12,-32 -36,-32 -28,0 -39,6 -39,45zm89 45l19 0 0 -61c9,-7 16,-10 27,-10 5,0 10,1 12,1l0 -19c-2,-1 -6,-1 -10,-1 -12,0 -21,6 -29,12l-3 -11 -16 0 0 89z"/>
 </g>
</svg>
