<?xml version="1.0" encoding="UTF-8"?>
<!DOCTYPE svg PUBLIC "-//W3C//DTD SVG 1.1//EN" "http://www.w3.org/Graphics/SVG/1.1/DTD/svg11.dtd">
<!-- Creator: CorelDRAW X7 -->
<svg xmlns="http://www.w3.org/2000/svg" xml:space="preserve" width="86.6986mm" height="86.6986mm" version="1.1" style="shape-rendering:geometricPrecision; text-rendering:geometricPrecision; image-rendering:optimizeQuality; fill-rule:evenodd; clip-rule:evenodd"
viewBox="0 0 8670 8670"
 xmlns:xlink="http://www.w3.org/1999/xlink">
 <defs>
  <style type="text/css">
   <![CDATA[
    .str3 {stroke:#57A695;stroke-width:8.9;stroke-linecap:round;stroke-linejoin:round}
    .str1 {stroke:#57A695;stroke-width:16.59;stroke-linecap:round;stroke-linejoin:round}
    .str2 {stroke:#57A695;stroke-width:16.59;stroke-linecap:round;stroke-linejoin:round}
    .str4 {stroke:#57A695;stroke-width:8.92;stroke-linecap:round;stroke-linejoin:round}
    .str0 {stroke:#57A695;stroke-width:16.6;stroke-linecap:round;stroke-linejoin:round}
    .fil0 {fill:none}
    .fil5 {fill:none;fill-rule:nonzero}
    .fil1 {fill:#FEFEFE}
    .fil2 {fill:#E6E7E8}
    .fil9 {fill:#F8A05F}
    .fil10 {fill:#201E1E}
    .fil4 {fill:#11381E}
    .fil3 {fill:#1C472A}
    .fil15 {fill:#FEFEFE;fill-rule:nonzero}
    .fil11 {fill:#373435;fill-rule:nonzero}
    .fil7 {fill:#57A695;fill-rule:nonzero}
    .fil12 {fill:#201E1E;fill-rule:nonzero}
    .fil16 {fill:#1C472A;fill-rule:nonzero}
    .fil6 {fill:url(#id0);fill-rule:nonzero}
    .fil14 {fill:url(#id1);fill-rule:nonzero}
    .fil13 {fill:url(#id2);fill-rule:nonzero}
    .fil8 {fill:url(#id3);fill-rule:nonzero}
   ]]>
  </style>
  <linearGradient id="id0" gradientUnits="userSpaceOnUse" x1="1606.57" y1="2611.82" x2="1606.57" y2="2798.52">
   <stop offset="0" style="stop-opacity:1; stop-color:#1C472A"/>
   <stop offset="1" style="stop-opacity:1; stop-color:#0A2E15"/>
  </linearGradient>
  <linearGradient id="id1" gradientUnits="userSpaceOnUse" xlink:href="#id0" x1="6948.18" y1="4111.86" x2="6948.18" y2="4298.56">
  </linearGradient>
  <linearGradient id="id2" gradientUnits="userSpaceOnUse" xlink:href="#id0" x1="2975.08" y1="4105.13" x2="2975.08" y2="4291.83">
  </linearGradient>
  <linearGradient id="id3" gradientUnits="userSpaceOnUse" xlink:href="#id0" x1="4276.6" y1="2611.82" x2="4276.6" y2="2798.52">
  </linearGradient>
 </defs>
 <g id="Layer_x0020_1">
  <metadata id="CorelCorpID_0Corel-Layer"/>
  <rect class="fil0" width="8670" height="8670"/>
  <rect class="fil1" y="4985" width="4335" height="1740"/>
  <rect class="fil2" width="8670" height="3245"/>
  <g id="_444975896">
   <g>
    <path class="fil3" d="M4277 306c549,0 994,446 994,995 0,549 -445,995 -994,995 -550,0 -995,-446 -995,-995 0,-549 445,-995 995,-995z"/>
    <path class="fil4" d="M5267 1398c-49,504 -474,898 -990,898 -29,0 -57,-1 -84,-4l-444 -545c-100,-121 -159,-277 -159,-446 0,-388 312,-702 696,-702 217,0 410,100 538,255l443 544z"/>
    <g>
     <path class="fil5 str0" d="M4770 1806c-52,51 -112,93 -179,126 -89,44 -184,67 -283,71l0 -299c91,-6 169,-44 232,-114l3 -4 227 220zm193 -353c-6,28 -13,54 -22,81 -24,72 -59,139 -106,199 -10,13 -21,26 -32,38l-230 -224c19,-29 35,-60 46,-94l344 0zm-159 -623c52,58 93,123 122,195 16,40 28,81 37,124l-343 0c-12,-34 -27,-65 -47,-95l231 -224zm-496 -230c84,2 164,20 242,51 82,34 156,82 220,144l-227 220 -3 -4c-63,-71 -141,-109 -232,-115l0 -296zm-283 985l3 4c64,71 141,109 231,115l0 299c-83,-3 -163,-21 -239,-52 -83,-34 -157,-83 -221,-146l226 -220zm-100 -260c4,84 27,159 70,222l-230 223c-52,-59 -93,-124 -122,-196 -32,-77 -50,-161 -52,-249l334 0zm-127 -529c63,-63 137,-112 220,-145 77,-32 157,-49 241,-51l0 296c-90,6 -167,44 -231,115l-4 5 -226 -220zm-207 481c2,-89 19,-172 52,-250 29,-72 69,-137 121,-195l230 223c-42,63 -65,137 -69,222l-334 0z"/>
    </g>
   </g>
   <g id="_451104096">
    <path class="fil3" d="M1607 307c549,0 994,445 994,994 0,549 -445,994 -994,994 -550,0 -995,-445 -995,-994 0,-549 445,-994 995,-994z"/>
    <path class="fil4" d="M2591 1381c-38,492 -435,884 -930,915 -13,0 -26,1 -39,1 -28,0 -56,-2 -84,-4l-442 -543c-99,-121 -158,-276 -158,-445 0,-386 310,-699 694,-699 215,0 408,99 535,255l424 520z"/>
    <g>
     <g>
      <path class="fil0 str1" d="M2000 1134c-40,-87 -110,-157 -198,-197l110 -264 88 461z"/>
     </g>
     <g>
      <path class="fil0 str1" d="M1912 673l4 2c155,69 280,194 348,350l-264 109 -88 -461z"/>
     </g>
     <g>
      <path class="fil0 str1" d="M1469 937l-3 1c-86,40 -155,110 -195,196l-264 -109 462 -88z"/>
     </g>
     <g>
      <path class="fil0 str1" d="M1007 1025c69,-157 195,-283 352,-352l110 264 -462 88z"/>
     </g>
     <g>
      <path class="fil0 str1" d="M996 1052l6 2 258 107c-16,44 -25,91 -25,140 0,49 9,96 25,140l-264 -389z"/>
     </g>
     <g>
      <path class="fil0 str1" d="M996 1550c-30,-77 -47,-161 -47,-249 0,-88 17,-172 47,-249l264 389 -264 109z"/>
     </g>
     <g>
      <path class="fil0 str1" d="M1271 1468c2,5 5,9 7,14 41,81 108,146 191,183l-110 265 -88 -462z"/>
     </g>
     <g>
      <path class="fil0 str1" d="M1359 1930c-157,-69 -283,-196 -352,-353l264 -109 88 462z"/>
     </g>
     <g>
      <path class="fil0 str1" d="M1386 1941l110 -264c43,16 90,25 140,25 49,0 96,-9 139,-25l-389 264z"/>
     </g>
     <g>
      <path class="fil0 str1" d="M1885 1941c-78,30 -162,47 -249,47 -88,0 -172,-17 -250,-47l389 -264 110 264z"/>
     </g>
     <g>
      <path class="fil0 str1" d="M1802 1665c88,-40 158,-110 198,-197l264 109 -462 88z"/>
     </g>
     <g>
      <path class="fil0 str1" d="M2264 1577c-69,157 -195,284 -352,353l-110 -265 462 -88z"/>
     </g>
     <g>
      <path class="fil0 str1" d="M1885 661l-2 4 -108 260c-43,-16 -90,-25 -139,-25 -50,0 -97,9 -140,25l389 -264z"/>
     </g>
     <g>
      <path class="fil0 str1" d="M1636 615c87,0 171,16 249,46l-389 264 -110 -264c78,-30 162,-46 250,-46z"/>
     </g>
    </g>
   </g>
   <g>
    <g>
     <path class="fil0 str2" d="M7457 1134c-40,-88 -111,-158 -198,-198l110 -264 88 462z"/>
    </g>
    <g>
     <path class="fil0 str2" d="M7369 672l4 2c155,70 279,195 348,350l-264 110 -88 -462z"/>
    </g>
    <g>
     <path class="fil0 str2" d="M6925 936l-3 1c-85,41 -155,110 -194,197l-264 -110 461 -88z"/>
    </g>
    <g>
     <path class="fil0 str2" d="M6464 1024c69,-157 195,-283 352,-352l109 264 -461 88z"/>
    </g>
    <g>
     <path class="fil0 str2" d="M6452 1051l6 3 259 107c-17,43 -26,90 -26,139 0,50 9,97 26,140l-265 -389z"/>
    </g>
    <g>
     <path class="fil0 str2" d="M6452 1550c-30,-78 -46,-162 -46,-250 0,-87 16,-171 46,-249l265 389 -265 110z"/>
    </g>
    <g>
     <path class="fil0 str2" d="M6728 1467c2,5 4,10 7,15 41,80 108,145 190,183l-109 264 -88 -462z"/>
    </g>
    <g>
     <path class="fil0 str2" d="M6816 1929c-157,-69 -283,-195 -352,-352l264 -110 88 462z"/>
    </g>
    <g>
     <path class="fil0 str2" d="M6843 1940l110 -264c43,16 90,25 139,25 49,0 96,-9 140,-25l-389 264z"/>
    </g>
    <g>
     <path class="fil0 str2" d="M7341 1940c-77,30 -161,47 -249,47 -88,0 -172,-17 -249,-47l389 -264 109 264z"/>
    </g>
    <g>
     <path class="fil0 str2" d="M7259 1665c87,-40 158,-110 198,-198l264 110 -462 88z"/>
    </g>
    <g>
     <path class="fil0 str2" d="M7721 1577c-69,157 -196,283 -352,352l-110 -264 462 -88z"/>
    </g>
    <g>
     <path class="fil0 str2" d="M7341 661l-1 4 -108 260c-44,-16 -91,-25 -140,-25 -49,0 -96,9 -139,25l388 -264z"/>
    </g>
    <g>
     <path class="fil0 str2" d="M7092 614c88,0 172,17 249,47l-388 264 -110 -264c77,-31 161,-47 249,-47z"/>
    </g>
   </g>
   <path class="fil6" d="M575 2629c0,129 44,156 102,156 48,0 96,1 142,-18l0 -44c0,0 -67,5 -120,5 -42,0 -57,-16 -57,-98 0,-97 21,-101 57,-101 51,0 116,4 116,4l0 -43c-47,-14 -108,-18 -138,-18 -59,0 -102,27 -102,157zm343 4c0,-95 17,-104 71,-104 55,0 72,9 72,104 0,89 -20,95 -72,95 -49,0 -71,-7 -71,-95zm-67 0c0,110 33,152 138,152 106,0 139,-38 139,-152 0,-122 -34,-161 -139,-161 -103,0 -138,36 -138,161zm387 0c0,-95 17,-104 71,-104 55,0 71,9 71,104 0,89 -19,95 -71,95 -49,0 -71,-7 -71,-95zm-68 0c0,110 34,152 139,152 106,0 139,-38 139,-152 0,-122 -34,-161 -139,-161 -103,0 -139,36 -139,161zm393 -49c0,-26 7,-52 45,-52l39 0c35,0 45,17 46,52 1,27 -9,55 -45,55l-41 0c-35,0 -44,-27 -44,-55zm0 259l0 -61c0,0 12,3 25,3l82 0c27,0 33,12 33,33l0 26c0,22 -6,38 -36,38l-62 0c-21,0 -42,-4 -42,-39l0 0zm-68 -122c0,24 10,44 27,54l-26 32 0 42c0,61 40,90 94,90l87 0c76,0 93,-49 93,-90l0 -34c0,-57 -32,-87 -85,-87l-104 0c-13,0 -24,-3 -24,-17 0,-14 14,-15 24,-15l78 0c85,0 101,-66 101,-107 0,-39 -8,-50 -14,-62l39 -11 0 -42 -185 1c-66,0 -104,36 -104,109 0,30 9,68 34,84 -25,7 -35,30 -35,53zm391 -137c0,-26 7,-52 45,-52l39 0c35,0 44,17 45,52 2,27 -8,55 -45,55l-41 0c-34,0 -43,-27 -43,-55zm0 259l0 -61c0,0 12,3 25,3l81 0c28,0 34,12 34,33l0 26c0,22 -6,38 -37,38l-61 0c-21,0 -42,-4 -42,-39l0 0zm-68 -122c0,24 10,44 26,54l-25 32 0 42c0,61 40,90 94,90l87 0c76,0 93,-49 93,-90l0 -34c0,-57 -32,-87 -85,-87l-105 0c-12,0 -23,-3 -23,-17 0,-14 14,-15 23,-15l78 0c85,0 102,-66 102,-107 0,-39 -9,-50 -14,-62l38 -11 0 -42 -184 1c-67,0 -104,36 -104,109 0,30 9,68 34,84 -25,7 -35,30 -35,53zm376 -115c0,-76 20,-78 71,-78 47,0 55,6 55,53 0,16 -10,25 -30,25l-96 0zm-67 21c0,116 23,158 101,158 48,0 108,-1 153,-16l0 -47c-43,7 -75,7 -124,7 -44,0 -63,-9 -63,-70l110 0c55,0 83,-24 83,-76 0,-101 -42,-110 -126,-110 -96,0 -134,21 -134,154zm309 155l67 0 0 -209c29,-26 53,-34 91,-34 17,0 36,1 44,2l0 -65c-8,-3 -23,-4 -37,-4 -42,0 -72,22 -98,42l-13 -39 -54 0 0 307z"/>
   <path class="fil7" d="M6032 2629c0,129 44,156 101,156 48,0 97,1 143,-18l0 -44c0,0 -68,5 -121,5 -41,0 -56,-16 -56,-98 0,-97 20,-101 56,-101 52,0 116,4 116,4l0 -43c-46,-14 -108,-18 -138,-18 -59,0 -101,27 -101,157zm342 4c0,-95 18,-104 72,-104 55,0 71,9 71,104 0,89 -19,95 -71,95 -49,0 -72,-7 -72,-95zm-67 0c0,110 34,152 139,152 106,0 138,-38 138,-152 0,-122 -33,-161 -138,-161 -103,0 -139,36 -139,161zm387 0c0,-95 18,-104 72,-104 55,0 71,9 71,104 0,89 -20,95 -71,95 -49,0 -72,-7 -72,-95zm-67 0c0,110 34,152 139,152 106,0 138,-38 138,-152 0,-122 -33,-161 -138,-161 -103,0 -139,36 -139,161zm393 -49c0,-26 7,-52 45,-52l39 0c34,0 44,17 45,52 2,27 -8,55 -45,55l-41 0c-34,0 -43,-27 -43,-55zm0 259l0 -61c0,0 11,3 25,3l81 0c28,0 34,12 34,33l0 26c0,22 -6,38 -37,38l-61 0c-21,0 -42,-4 -42,-39l0 0zm-68 -122c0,24 10,44 26,54l-25 32 0 42c0,61 40,90 94,90l87 0c76,0 93,-49 93,-90l0 -34c0,-57 -32,-87 -85,-87l-105 0c-12,0 -23,-3 -23,-17 0,-14 14,-15 23,-15l78 0c85,0 102,-66 102,-107 0,-39 -9,-50 -14,-62l38 -11 0 -42 -184 1c-67,0 -104,36 -104,109 0,30 9,68 34,84 -25,7 -35,30 -35,53zm391 -137c0,-26 7,-52 45,-52l39 0c34,0 44,17 45,52 1,27 -8,55 -45,55l-41 0c-35,0 -43,-27 -43,-55zm0 259l0 -61c0,0 11,3 25,3l81 0c27,0 34,12 34,33l0 26c0,22 -6,38 -37,38l-62 0c-21,0 -41,-4 -41,-39l0 0zm-69 -122c0,24 11,44 27,54l-25 32 0 42c0,61 39,90 94,90l87 0c75,0 93,-49 93,-90l0 -34c0,-57 -33,-87 -85,-87l-105 0c-13,0 -24,-3 -24,-17 0,-14 15,-15 24,-15l78 0c85,0 101,-66 101,-107 0,-39 -8,-50 -14,-62l39 -11 0 -42 -184 1c-67,0 -104,36 -104,109 0,30 8,68 34,84 -25,7 -36,30 -36,53zm377 -115c0,-76 20,-78 70,-78 48,0 55,6 55,53 0,16 -9,25 -29,25l-96 0zm-67 21c0,116 23,158 101,158 48,0 108,-1 153,-16l0 -47c-44,7 -75,7 -125,7 -44,0 -62,-9 -62,-70l109 0c56,0 84,-24 84,-76 0,-101 -43,-110 -126,-110 -96,0 -134,21 -134,154zm309 155l67 0 0 -209c29,-26 53,-34 91,-34 17,0 36,1 44,2l0 -65c-8,-3 -23,-4 -37,-4 -42,0 -72,22 -98,42l-13 -39 -54 0 0 307z"/>
   <path class="fil8" d="M3245 2629c0,129 44,156 102,156 48,0 96,1 142,-18l0 -44c0,0 -67,5 -120,5 -42,0 -57,-16 -57,-98 0,-97 21,-101 57,-101 51,0 116,4 116,4l0 -43c-47,-14 -108,-18 -138,-18 -59,0 -102,27 -102,157zm343 4c0,-95 17,-104 71,-104 55,0 72,9 72,104 0,89 -20,95 -72,95 -49,0 -71,-7 -71,-95zm-67 0c0,110 33,152 138,152 106,0 139,-38 139,-152 0,-122 -34,-161 -139,-161 -102,0 -138,36 -138,161zm387 0c0,-95 17,-104 71,-104 55,0 71,9 71,104 0,89 -19,95 -71,95 -49,0 -71,-7 -71,-95zm-67 0c0,110 33,152 138,152 106,0 139,-38 139,-152 0,-122 -34,-161 -139,-161 -103,0 -138,36 -138,161zm392 -49c0,-26 7,-52 45,-52l39 0c35,0 45,17 46,52 1,27 -9,55 -45,55l-41 0c-35,0 -44,-27 -44,-55zm0 259l0 -61c0,0 12,3 25,3l82 0c27,0 33,12 33,33l0 26c0,22 -6,38 -36,38l-62 0c-21,0 -42,-4 -42,-39l0 0zm-68 -122c0,24 10,44 27,54l-26 32 0 42c0,61 40,90 94,90l87 0c76,0 93,-49 93,-90l0 -34c0,-57 -32,-87 -85,-87l-104 0c-13,0 -24,-3 -24,-17 0,-14 14,-15 24,-15l78 0c85,0 101,-66 101,-107 0,-39 -8,-50 -14,-62l39 -11 0 -42 -185 1c-66,0 -104,36 -104,109 0,30 9,68 34,84 -25,7 -35,30 -35,53zm391 -137c0,-26 7,-52 45,-52l39 0c35,0 44,17 46,52 1,27 -9,55 -46,55l-41 0c-34,0 -43,-27 -43,-55zm0 259l0 -61c0,0 12,3 25,3l81 0c28,0 34,12 34,33l0 26c0,22 -6,38 -37,38l-61 0c-21,0 -42,-4 -42,-39l0 0zm-68 -122c0,24 10,44 26,54l-25 32 0 42c0,61 40,90 94,90l87 0c76,0 93,-49 93,-90l0 -34c0,-57 -32,-87 -85,-87l-105 0c-12,0 -23,-3 -23,-17 0,-14 14,-15 23,-15l78 0c85,0 102,-66 102,-107 0,-39 -8,-50 -14,-62l38 -11 0 -42 -184 1c-67,0 -104,36 -104,109 0,30 9,68 34,84 -25,7 -35,30 -35,53zm376 -115c0,-76 20,-78 71,-78 47,0 55,6 55,53 0,16 -10,25 -30,25l-96 0zm-67 21c0,116 23,158 101,158 48,0 109,-1 153,-16l0 -47c-43,7 -75,7 -124,7 -44,0 -63,-9 -63,-70l110 0c55,0 83,-24 83,-76 0,-101 -42,-110 -126,-110 -96,0 -134,21 -134,154zm309 155l67 0 0 -209c29,-26 53,-34 91,-34 17,0 36,1 44,2l0 -65c-8,-3 -23,-4 -37,-4 -42,0 -72,22 -98,42l-13 -39 -54 0 0 307z"/>
  </g>
  <rect class="fil9" y="3245" width="8670" height="1740"/>
  <rect class="fil10" x="4335" y="4985" width="4335" height="1740"/>
  <g>
   <g>
    <path class="fil11" d="M1307 5607l8 3 -2 -5 4 2 5 2 4 2 5 3 4 2 5 3 4 3 4 2 4 3 4 3 4 3 4 3 4 4 4 3 3 3 4 4 4 3 3 4 3 4 4 3 3 4 3 4 3 4 3 4 3 4 3 5 2 4 3 4 2 5 3 4 2 4 2 5 -7 4 -2 -5 -3 -4 -2 -4 -2 -5 -3 -4 -2 -4 -3 -4 -3 -4 -3 -4 -3 -4 -3 -3 -3 -4 -3 -4 -3 -3 -3 -4 -4 -3 -3 -3 -4 -4 -4 -3 -3 -3 -4 -3 -4 -3 -4 -3 -4 -3 -4 -2 -4 -3 -4 -2 -4 -3 -5 -2 -4 -3 -4 -2 -5 -2 -2 -5zm2 5c-2,-1 -3,-3 -2,-5 1,-2 4,-3 6,-2l-4 7zm67 -147l-61 145 -8 -3 61 -145 8 1 0 2zm-8 -3c1,-2 4,-3 6,-2 2,0 3,3 2,5l-8 -3zm49 256l-49 -254 8 -1 50 253 -8 3 -1 -1zm9 -2c0,2 -1,4 -4,5 -2,0 -4,-1 -5,-3l9 -2z"/>
   </g>
   <g>
    <path class="fil11" d="M1373 5468l-2 -1 3 -7 2 1 1 0 -4 7zm3 -7c3,1 4,3 3,5 -1,2 -4,3 -6,2l3 -7zm195 200l-3 -8 -2 5 -4 -7 -4 -8 -4 -8 -4 -7 -4 -8 -5 -7 -5 -7 -4 -7 -5 -7 -6 -7 -5 -7 -5 -7 -6 -6 -6 -7 -6 -6 -6 -6 -6 -6 -6 -6 -7 -6 -6 -5 -7 -5 -7 -6 -7 -5 -7 -5 -7 -5 -8 -4 -7 -5 -8 -4 -7 -4 -8 -4 -8 -4 -8 -4 4 -7 8 3 8 4 8 4 8 5 7 4 8 5 7 4 8 5 7 5 7 5 7 6 7 5 7 6 6 6 7 6 6 6 6 6 6 7 6 6 6 7 6 7 5 6 5 8 6 7 5 7 4 7 5 8 4 7 5 8 4 8 4 8 3 8 -2 6zm2 -6c1,2 0,5 -2,6 -2,1 -4,0 -5,-3l7 -3zm-153 58l148 -60 3 8 -148 60 -6 -3 3 -5zm3 8c-2,1 -5,0 -5,-3 -1,-2 0,-4 2,-5l3 8zm-47 -258l50 253 -9 2 -49 -254 6 -4 2 3zm-8 1c0,-2 1,-4 3,-5 3,0 5,1 5,4l-8 1z"/>
   </g>
   <g>
    <path class="fil11" d="M1121 5605l1 0 4 7 -2 1 -3 -8 0 0zm3 8c-2,1 -5,0 -6,-2 -1,-2 0,-5 3,-6l3 8zm-112 108l3 -8 -6 2 3 -5 2 -4 2 -4 3 -5 2 -4 3 -4 3 -4 2 -4 3 -4 3 -4 3 -4 4 -4 3 -4 3 -3 4 -4 3 -4 4 -3 3 -3 4 -4 4 -3 4 -3 4 -3 4 -3 4 -3 4 -3 4 -2 4 -3 5 -3 4 -2 4 -2 5 -3 5 -2 3 8 -4 2 -5 2 -4 2 -4 3 -4 2 -4 3 -5 2 -4 3 -3 3 -4 3 -4 3 -4 3 -3 3 -4 3 -4 3 -3 3 -3 4 -4 3 -3 4 -3 3 -3 4 -3 4 -3 4 -3 4 -2 3 -3 4 -3 4 -2 5 -2 4 -3 4 -2 4 -2 5 -5 2zm5 -2c-1,2 -3,3 -5,2 -3,-1 -4,-4 -3,-6l8 4zm-150 -66l148 60 -3 8 -148 -60 1 -8 2 0zm-3 8c-2,-1 -3,-4 -3,-6 1,-2 4,-3 6,-2l-3 8zm261 -48l-259 48 -1 -8 258 -49 3 8 -1 1zm-2 -9c2,0 5,1 5,4 1,2 -1,4 -3,5l-2 -9z"/>
   </g>
   <g>
    <path class="fil11" d="M1067 5462l-8 3 5 2 -8 4 -8 4 -8 4 -7 4 -8 4 -8 5 -7 4 -7 5 -8 5 -7 5 -7 5 -7 6 -6 5 -7 6 -6 6 -7 6 -6 6 -6 6 -5 7 -6 6 -6 7 -5 7 -5 7 -5 7 -5 7 -5 7 -5 8 -4 7 -4 8 -4 8 -4 8 -4 7 -8 -3 4 -8 4 -8 4 -8 5 -8 4 -8 5 -7 5 -8 5 -7 5 -7 5 -7 6 -7 5 -7 6 -7 6 -6 6 -7 7 -6 6 -6 7 -6 6 -6 7 -6 7 -5 7 -6 7 -5 8 -5 7 -5 8 -5 8 -4 7 -5 8 -4 8 -4 9 -4 8 -3 6 2zm-6 -2c2,-1 5,0 6,2 0,2 -1,4 -3,5l-3 -7zm59 150l-61 -145 8 -3 61 145 -3 6 -5 -3zm8 -3c1,2 0,4 -2,5 -3,1 -5,0 -6,-2l8 -3zm-263 46l258 -49 2 9 -259 48 -5 -6 4 -2zm1 8c-2,0 -4,-1 -5,-3 0,-3 1,-5 4,-5l1 8z"/>
   </g>
   <g>
    <path class="fil11" d="M861 5677l-4 -1 4 -8 3 1 0 0 -3 8zm3 -8c2,1 3,3 2,6 -1,2 -3,3 -5,2l3 -8zm141 67l-144 -59 3 -8 145 59 2 5 -6 3zm4 -8c2,1 3,3 2,5 -1,2 -3,4 -6,3l4 -8zm-12 80l-8 0 0 0 0 -2 0 -3 0 -2 0 -3 0 -2 0 -3 0 -2 1 -3 0 -3 0 -2 0 -3 1 -2 0 -2 1 -3 0 -2 0 -3 1 -2 0 -3 1 -2 0 -3 1 -2 1 -2 0 -3 1 -2 1 -3 0 -2 1 -2 1 -3 1 -2 0 -2 1 -2 1 -3 8 3 -1 2 -1 3 0 2 -1 2 -1 2 -1 3 0 2 -1 2 -1 2 0 3 -1 2 0 2 -1 3 0 2 -1 2 0 3 -1 2 0 2 0 3 -1 2 0 3 0 2 -1 2 0 3 0 2 0 3 0 2 -1 3 0 2 0 2 0 3 0 2 0 0zm6 79l7 -4 -7 4 -1 -3 -1 -2 0 -2 -1 -3 -1 -2 -1 -2 0 -3 -1 -2 -1 -2 0 -3 -1 -2 -1 -3 0 -2 -1 -2 0 -3 -1 -2 0 -3 0 -2 -1 -3 0 -2 -1 -3 0 -2 0 -3 0 -2 -1 -3 0 -2 0 -3 0 -2 0 -3 0 -2 0 -3 0 -3 8 0 0 3 0 2 0 3 0 2 1 3 0 2 0 3 0 2 0 2 1 3 0 2 0 3 1 2 0 2 0 3 1 2 0 2 1 3 0 2 1 2 0 3 1 2 0 2 1 3 1 2 0 2 1 2 1 3 1 2 0 2 1 2 1 3 -8 3zm8 -3c1,2 0,4 -3,5 -2,1 -4,0 -5,-2l8 -3zm-149 -215l148 214 -7 4 -147 -213 5 -6 1 1zm-6 5c-2,-2 -1,-4 1,-6 2,-1 4,-1 5,1l-6 5z"/>
   </g>
   <g>
    <path class="fil11" d="M829 5808l8 0 0 0 0 5 0 4 0 5 1 4 0 5 0 4 0 4 1 5 0 4 1 4 0 5 1 4 1 4 0 5 1 4 1 4 1 4 1 5 0 4 1 4 1 4 2 4 1 4 1 4 1 5 1 4 2 4 1 4 1 4 2 4 1 4 2 4 -8 3 -2 -4 -1 -4 -2 -5 -1 -4 -1 -4 -2 -4 -1 -4 -1 -4 -1 -4 -2 -5 -1 -4 -1 -4 -1 -4 -1 -5 -1 -4 -1 -4 0 -5 -1 -4 -1 -4 0 -5 -1 -4 -1 -5 0 -4 -1 -4 0 -5 0 -4 -1 -5 0 -4 0 -5 0 -5 0 -4 0 -5 0 0zm33 -139l-6 5 7 -1 -2 4 -1 4 -2 4 -1 4 -1 4 -2 4 -1 4 -1 4 -1 4 -1 5 -2 4 -1 4 -1 4 0 4 -1 4 -1 5 -1 4 -1 4 0 4 -1 5 -1 4 0 4 -1 5 0 4 -1 4 0 5 0 4 0 5 -1 4 0 4 0 5 0 4 -8 0 0 -4 0 -5 0 -4 0 -5 0 -4 1 -5 0 -4 0 -5 1 -4 0 -5 1 -4 1 -5 0 -4 1 -4 1 -5 0 -4 1 -4 1 -5 1 -4 1 -4 1 -4 1 -5 2 -4 1 -4 1 -4 1 -4 2 -5 1 -4 1 -4 2 -4 1 -4 2 -4 7 -1zm-7 1c1,-2 3,-3 6,-2 2,1 3,3 2,5l-8 -3zm148 217l-147 -213 6 -5 148 214 -1 6 -6 -2zm7 -4c2,2 1,4 -1,5 -2,2 -4,1 -6,-1l7 -4zm-153 58l148 -60 4 8 -148 60 -6 -2 2 -6zm4 8c-3,1 -5,0 -6,-2 -1,-2 0,-5 2,-6l4 8z"/>
   </g>
   <g>
    <path class="fil11" d="M1021 5906l-8 4 0 0 0 -1 0 0 0 0 0 0 0 0 0 -1 -1 0 0 0 0 0 0 -1 0 0 0 0 0 0 0 -1 0 0 -1 0 0 0 0 -1 0 0 0 0 0 0 0 -1 0 0 -1 0 0 0 0 -1 0 0 0 0 0 0 0 -1 0 0 -1 0 8 -4 0 0 0 1 0 0 1 0 0 0 0 1 0 0 0 0 0 0 0 1 0 0 1 0 0 0 0 1 0 0 0 0 0 0 0 0 0 1 0 0 1 0 0 0 0 1 0 0 0 0 0 0 0 1 0 0 1 0 0 0 0 1 0 0 0 0zm0 0c1,2 0,4 -2,6 -2,1 -5,0 -6,-2l8 -4zm107 104l-8 -3 2 5 -4 -2 -5 -2 -4 -2 -4 -2 -4 -3 -4 -2 -4 -3 -4 -2 -4 -3 -4 -3 -4 -3 -4 -3 -3 -3 -4 -3 -4 -3 -3 -3 -3 -3 -4 -4 -3 -3 -3 -4 -3 -3 -3 -4 -3 -3 -3 -4 -3 -4 -3 -4 -3 -4 -2 -4 -3 -4 -2 -4 -2 -4 -3 -4 8 -4 2 4 2 4 3 4 2 4 2 4 3 3 3 4 2 4 3 3 3 4 3 3 3 4 3 3 3 3 3 4 4 3 3 3 3 3 4 3 4 3 3 3 4 2 4 3 3 3 4 2 4 3 4 2 4 2 4 2 4 3 4 2 5 2 2 5zm-2 -5c2,0 3,3 2,5 -1,2 -4,3 -6,2l4 -7zm-67 147l61 -145 8 3 -61 145 -9 -1 1 -2zm8 3c-1,2 -4,3 -6,2 -2,-1 -3,-3 -2,-5l8 3zm-50 -256l50 254 -9 1 -49 -253 8 -3 0 1zm-8 2c0,-2 1,-5 3,-5 3,-1 5,1 5,3l-8 2z"/>
   </g>
   <g>
    <path class="fil11" d="M864 5956l3 8 2 -6 4 8 4 8 4 8 4 7 4 8 5 7 5 8 5 7 5 7 5 7 5 7 6 6 6 7 5 6 6 7 6 6 7 6 6 6 7 5 6 6 7 5 7 6 7 5 8 5 7 5 7 4 8 5 8 4 7 4 8 4 8 4 8 3 -3 8 -8 -3 -9 -4 -8 -4 -8 -5 -7 -4 -8 -5 -8 -4 -7 -5 -8 -5 -7 -6 -7 -5 -7 -5 -7 -6 -6 -6 -7 -6 -6 -6 -7 -7 -6 -6 -6 -7 -6 -6 -5 -7 -6 -7 -5 -7 -5 -7 -5 -8 -5 -7 -5 -8 -4 -7 -5 -8 -4 -8 -4 -8 -4 -8 3 -6zm-3 6c0,-2 0,-5 3,-6 2,-1 4,0 5,2l-8 4zm154 -58l-148 60 -3 -8 148 -60 5 3 -2 5zm-3 -8c2,-1 4,0 5,2 1,3 0,5 -2,6l-3 -8zm46 258l-49 -253 8 -2 50 254 -6 4 -3 -3zm9 -1c0,2 -1,4 -4,4 -2,1 -4,-1 -5,-3l9 -1z"/>
   </g>
   <g>
    <path class="fil11" d="M1143 6016l-61 145 -8 -3 61 -145 6 -2 2 5zm-8 -3c1,-2 4,-3 6,-2 2,1 3,3 2,5l-8 -3zm82 11l0 9 0 0 -2 0 -3 -1 -2 0 -3 0 -3 0 -2 0 -3 0 -2 0 -3 -1 -2 0 -3 0 -3 -1 -2 0 -3 0 -2 -1 -3 0 -2 -1 -3 0 -2 -1 -3 0 -2 -1 -2 0 -3 -1 -2 0 -3 -1 -2 -1 -2 -1 -3 0 -2 -1 -3 -1 -2 -1 -2 0 3 -8 2 0 2 1 2 1 3 1 2 0 2 1 3 1 2 0 2 1 3 1 2 0 2 1 3 0 2 1 2 0 3 1 2 0 3 0 2 1 3 0 2 0 2 1 3 0 2 0 3 0 2 1 3 0 2 0 3 0 2 0 3 0 2 0 0 0zm81 -6l-5 -7 4 8 -2 0 -3 1 -2 1 -2 1 -3 0 -2 1 -2 1 -3 1 -2 0 -3 1 -2 0 -3 1 -2 0 -3 1 -2 0 -3 1 -2 0 -3 1 -2 0 -3 0 -2 1 -3 0 -2 0 -3 1 -2 0 -3 0 -3 0 -2 0 -3 0 -2 0 -3 1 -3 0 0 -9 3 0 2 0 3 0 2 0 3 0 2 0 3 -1 2 0 3 0 2 0 3 -1 2 0 3 0 2 -1 3 0 2 0 2 -1 3 0 2 -1 3 0 2 -1 2 0 3 -1 2 -1 2 0 3 -1 2 -1 2 0 2 -1 3 -1 2 -1 2 0 4 7zm-4 -7c2,-1 5,0 6,2 0,2 -1,5 -3,6l-3 -8zm-218 145l217 -145 5 7 -218 145 -6 -5 2 -2zm4 7c-2,1 -4,1 -6,-1 -1,-2 0,-5 2,-6l4 7z"/>
   </g>
   <g>
    <path class="fil11" d="M1217 6189l0 -8 0 0 5 0 5 0 4 0 5 -1 4 0 5 0 4 0 4 -1 5 0 4 -1 5 0 4 -1 5 0 4 -1 4 -1 5 -1 4 0 4 -1 5 -1 4 -1 4 -1 4 -1 4 -1 5 -2 4 -1 4 -1 4 -1 4 -2 4 -1 4 -1 4 -2 4 -1 3 8 -4 1 -4 2 -4 1 -4 1 -4 2 -5 1 -4 1 -4 2 -4 1 -5 1 -4 1 -4 1 -5 1 -4 1 -4 1 -5 1 -4 0 -5 1 -4 1 -5 1 -4 0 -5 1 -4 0 -5 1 -4 0 -5 0 -4 1 -5 0 -5 0 -4 0 -5 0 -5 0 0 0zm-141 -33l4 7 -1 -7 4 1 4 2 5 1 4 1 4 2 4 1 4 1 4 1 4 2 5 1 4 1 4 1 4 1 5 1 4 1 4 0 5 1 4 1 4 1 5 0 4 1 4 0 5 1 4 0 5 1 4 0 5 0 4 0 5 1 4 0 5 0 4 0 0 8 -4 0 -5 0 -5 0 -4 0 -5 0 -4 -1 -5 0 -4 0 -5 -1 -5 0 -4 -1 -5 0 -4 -1 -4 -1 -5 -1 -4 0 -5 -1 -4 -1 -5 -1 -4 -1 -4 -1 -5 -1 -4 -1 -4 -1 -4 -2 -5 -1 -4 -1 -4 -2 -4 -1 -4 -1 -5 -2 -4 -1 0 -8zm0 8c-2,-1 -3,-4 -2,-6 1,-2 3,-3 5,-2l-3 8zm222 -146l-218 145 -4 -7 217 -145 7 2 -2 5zm-5 -7c2,-1 5,-1 6,1 1,2 1,5 -1,6l-5 -7zm60 150l-61 -145 8 -3 61 145 -3 6 -5 -3zm8 -3c1,2 0,5 -2,5 -3,1 -5,0 -6,-2l8 -3z"/>
   </g>
   <g>
    <path class="fil11" d="M1423 5896l-3 8 5 -2 -2 4 -2 5 -3 4 -2 5 -3 4 -2 4 -3 4 -3 4 -3 5 -3 3 -3 4 -3 4 -4 4 -3 4 -3 3 -4 4 -4 3 -3 4 -4 3 -4 3 -4 3 -4 4 -4 3 -4 2 -4 3 -4 3 -5 3 -4 2 -5 2 -4 3 -5 2 -4 2 -4 -7 5 -3 4 -2 4 -2 5 -2 4 -3 4 -2 4 -3 4 -3 4 -2 4 -3 4 -3 4 -3 3 -3 4 -4 4 -3 3 -3 4 -4 3 -3 3 -4 3 -3 3 -4 3 -4 3 -4 3 -3 3 -4 3 -4 2 -5 3 -4 2 -4 2 -4 3 -4 2 -5 5 -2zm-5 2c1,-2 3,-3 5,-2 2,1 3,4 2,6l-7 -4zm150 66l-148 -60 3 -8 148 60 -1 8 -2 0zm3 -8c2,1 3,3 2,6 0,2 -3,3 -5,2l3 -8zm-261 48l259 -48 1 8 -258 49 -3 -8 1 -1zm2 9c-3,0 -5,-2 -5,-4 -1,-2 1,-4 3,-5l2 9z"/>
   </g>
   <g>
    <path class="fil11" d="M1368 6155l8 -3 -5 -3 8 -3 8 -4 8 -4 7 -4 8 -4 8 -5 7 -4 7 -5 8 -5 7 -5 7 -6 6 -5 7 -6 7 -5 6 -6 6 -6 6 -6 6 -7 6 -6 6 -7 6 -6 5 -7 5 -7 5 -7 5 -7 5 -8 4 -7 5 -8 4 -7 4 -8 4 -8 4 -8 7 4 -3 8 -4 8 -5 8 -4 8 -4 7 -5 8 -5 7 -5 8 -5 7 -5 7 -6 7 -6 7 -5 6 -6 7 -6 6 -7 7 -6 6 -7 6 -6 6 -7 6 -7 5 -7 5 -8 6 -7 5 -7 5 -8 4 -8 5 -8 4 -8 5 -8 4 -8 4 -8 3 -6 -2zm6 2c-2,1 -5,0 -6,-2 -1,-2 0,-5 3,-6l3 8zm-59 -150l61 145 -8 3 -61 -145 3 -6 5 3zm-8 3c-1,-2 0,-5 2,-6 2,0 5,1 6,3l-8 3zm263 -46l-258 49 -2 -9 259 -48 4 6 -3 2zm-1 -8c2,-1 4,1 5,3 0,3 -1,5 -4,5l-1 -8z"/>
   </g>
   <g>
    <path class="fil11" d="M1352 5458l1 -2 8 3 -1 2 0 0 -8 -3zm8 3c-1,2 -3,3 -6,2 -2,-1 -3,-3 -2,-5l8 3zm-68 140l60 -143 8 3 -60 143 -6 2 -2 -5zm8 3c-1,2 -4,3 -6,2 -2,-1 -3,-3 -2,-5l8 3zm-83 -11l0 -9 0 0 3 0 3 0 2 0 3 0 2 1 3 0 3 0 2 0 3 0 2 1 3 0 2 0 3 1 2 0 3 0 2 1 3 0 2 1 3 0 2 1 3 0 2 1 3 1 2 0 3 1 2 1 2 0 3 1 2 1 2 1 3 0 2 1 -3 8 -2 -1 -2 0 -3 -1 -2 -1 -2 -1 -2 0 -3 -1 -2 -1 -2 0 -3 -1 -2 0 -3 -1 -2 0 -2 -1 -3 0 -2 -1 -2 0 -3 -1 -2 0 -3 0 -2 -1 -3 0 -2 0 -3 0 -2 -1 -3 0 -2 0 -3 0 -2 0 -3 0 -2 0 -3 0 0 0zm-80 6l5 7 -4 -8 2 -1 2 0 3 -1 2 -1 3 -1 2 0 2 -1 3 -1 2 0 3 -1 2 -1 2 0 3 -1 2 0 3 -1 2 0 3 -1 2 0 3 0 2 -1 3 0 3 0 2 -1 3 0 2 0 3 0 2 0 3 -1 3 0 2 0 3 0 2 0 0 9 -2 0 -3 0 -2 0 -3 0 -2 0 -3 0 -2 0 -3 1 -2 0 -3 0 -2 0 -2 1 -3 0 -2 0 -3 1 -2 0 -3 1 -2 0 -2 1 -3 0 -2 1 -2 0 -3 1 -2 0 -2 1 -3 1 -2 0 -2 1 -3 1 -2 1 -2 0 -2 1 -4 -7zm4 7c-3,1 -5,0 -6,-2 -1,-3 1,-5 3,-6l3 8zm218 -145l-217 145 -5 -7 218 -145 6 5 -2 2zm-4 -7c2,-2 4,-1 5,1 2,2 1,4 -1,6l-4 -7z"/>
   </g>
   <g>
    <path class="fil11" d="M1359 5461l-4 -7 0 7 -4 -1 -4 -2 -4 -1 -4 -2 -4 -1 -4 -1 -4 -1 -4 -2 -5 -1 -4 -1 -4 -1 -4 -1 -4 -1 -5 -1 -4 -1 -4 -1 -5 0 -4 -1 -4 -1 -5 0 -4 -1 -5 -1 -4 0 -5 0 -4 -1 -4 0 -5 -1 -4 0 -5 0 -4 0 -5 0 -5 0 0 -9 5 0 5 0 4 1 5 0 5 0 4 0 5 1 4 0 5 1 4 0 5 1 4 0 5 1 4 1 5 0 4 1 5 1 4 1 4 1 5 1 4 1 4 1 5 1 4 1 4 1 4 2 5 1 4 1 4 2 4 1 4 2 4 1 1 8zm-1 -8c3,1 4,4 3,6 -1,2 -3,3 -6,2l3 -8zm-221 146l218 -145 4 7 -217 145 -7 -2 2 -5zm5 7c-2,1 -5,0 -6,-1 -2,-2 -1,-5 1,-6l5 7zm-60 -150l61 145 -8 3 -61 -145 2 -6 6 3zm-8 3c-1,-2 0,-5 2,-6 2,-1 5,0 6,3l-8 3zm143 -32l0 9 0 0 -4 0 -5 0 -4 0 -5 0 -4 0 -5 1 -4 0 -5 1 -4 0 -5 0 -4 1 -4 1 -5 0 -4 1 -4 1 -5 0 -4 1 -4 1 -5 1 -4 1 -4 1 -4 1 -5 1 -4 1 -4 2 -4 1 -4 1 -4 1 -4 2 -5 1 -4 2 -4 1 -3 -8 4 -1 5 -2 4 -1 4 -2 4 -1 4 -1 5 -2 4 -1 4 -1 4 -1 5 -1 4 -1 4 -1 5 -1 4 -1 5 -1 4 -1 5 0 4 -1 4 -1 5 0 4 -1 5 0 5 -1 4 0 5 -1 4 0 5 0 4 0 5 -1 5 0 4 0 0 0z"/>
   </g>
  </g>
  <path class="fil12" d="M1771 5820c0,130 44,157 101,157 48,0 96,1 142,-18l0 -44c0,0 -67,5 -120,5 -42,0 -56,-16 -56,-98 0,-97 20,-101 56,-101 51,0 116,3 116,3l0 -42c-47,-14 -108,-18 -138,-18 -59,0 -101,27 -101,156zm342 5c0,-95 17,-104 72,-104 55,0 71,9 71,104 0,89 -20,95 -71,95 -49,0 -72,-7 -72,-95zm-67 0c0,110 33,152 139,152 106,0 138,-38 138,-152 0,-122 -34,-161 -138,-161 -103,0 -139,36 -139,161zm387 0c0,-95 17,-104 72,-104 55,0 71,9 71,104 0,89 -20,95 -71,95 -50,0 -72,-7 -72,-95zm-67 0c0,110 33,152 139,152 105,0 138,-38 138,-152 0,-122 -34,-161 -138,-161 -103,0 -139,36 -139,161zm392 -49c0,-26 7,-52 46,-52l38 0c35,0 45,16 46,52 1,27 -9,55 -45,55l-41 0c-35,0 -44,-27 -44,-55zm0 259l0 -61c0,0 12,3 25,3l82 0c27,0 33,12 33,33l0 26c0,22 -5,38 -36,38l-62 0c-21,0 -42,-4 -42,-39l0 0zm-68 -123c0,25 11,45 27,55l-26 32 0 42c0,61 40,89 95,89l86 0c76,0 94,-48 94,-89l0 -34c0,-57 -33,-87 -85,-87l-105 0c-13,0 -24,-3 -24,-17 0,-14 15,-15 24,-15l78 0c85,0 101,-66 101,-107 0,-39 -8,-50 -14,-62l39 -11 0 -42 -185 1c-66,0 -104,35 -104,109 0,30 9,68 34,84 -24,7 -35,30 -35,52zm391 -136c0,-26 7,-52 45,-52l39 0c35,0 45,16 46,52 1,27 -9,55 -45,55l-41 0c-35,0 -44,-27 -44,-55zm0 259l0 -61c0,0 12,3 25,3l82 0c27,0 33,12 33,33l0 26c0,22 -6,38 -36,38l-62 0c-21,0 -42,-4 -42,-39l0 0zm-68 -123c0,25 10,45 27,55l-26 32 0 42c0,61 40,89 94,89l87 0c76,0 93,-48 93,-89l0 -34c0,-57 -32,-87 -85,-87l-104 0c-13,0 -24,-3 -24,-17 0,-14 14,-15 24,-15l78 0c85,0 101,-66 101,-107 0,-39 -8,-50 -14,-62l39 -11 0 -42 -185 1c-66,0 -104,35 -104,109 0,30 9,68 34,84 -25,7 -35,30 -35,52zm376 -114c0,-76 20,-78 71,-78 47,0 55,6 55,53 0,16 -9,25 -30,25l-96 0zm-67 21c0,116 24,158 102,158 48,0 108,-1 152,-16l0 -47c-43,7 -75,6 -124,6 -44,0 -63,-8 -63,-70l110 0c55,0 83,-23 83,-75 0,-102 -42,-110 -125,-110 -96,0 -135,21 -135,154zm309 155l67 0 0 -209c29,-26 54,-34 92,-34 16,0 36,1 43,2l0 -65c-7,-3 -22,-4 -37,-4 -42,0 -72,22 -98,42l-12 -39 -55 0 0 307z"/>
  <g>
   <path class="fil3" d="M5175 3555c295,0 534,239 534,533 0,295 -239,534 -534,534 -294,0 -533,-239 -533,-534 0,-294 239,-533 533,-533z"/>
   <path class="fil4" d="M5706 4140c-26,271 -254,482 -531,482 -15,0 -30,-1 -45,-2l-238 -292c-53,-65 -85,-149 -85,-240 0,-208 167,-376 374,-376 116,0 219,53 288,137l237 291z"/>
   <g>
    <path class="fil5 str3" d="M5440 4359c-28,28 -60,50 -96,68 -48,23 -98,36 -152,37l0 -160c49,-3 91,-23 124,-61l2 -2 122 118zm103 -189c-3,15 -7,29 -11,43 -13,39 -32,75 -57,107 -6,7 -11,14 -17,20l-124 -120c11,-15 19,-32 25,-50l184 0zm-85 -334c28,31 50,66 65,104 9,22 16,44 20,67l-184 0c-6,-18 -14,-35 -25,-51l124 -120zm-266 -124c45,2 88,11 130,28 44,18 84,44 118,77l-122 118 -2 -2c-33,-38 -75,-59 -124,-62l0 -159zm-151 529l1 2c34,38 76,58 124,61l0 160c-45,-1 -87,-10 -128,-27 -45,-18 -84,-45 -119,-79l122 -117zm-54 -140c2,45 14,85 38,119l-124 120c-28,-32 -50,-67 -66,-105 -17,-42 -26,-86 -27,-134l179 0zm-68 -283c34,-34 73,-60 118,-78 41,-17 84,-26 129,-28l0 159c-48,3 -90,24 -124,62l-2 2 -121 -117zm-111 257c1,-47 10,-92 27,-134 16,-38 38,-73 66,-104l123 119c-23,34 -35,74 -37,119l-179 0z"/>
   </g>
   <g>
    <path class="fil3" d="M1225 3604c296,0 535,240 535,535 0,295 -239,535 -535,535 -295,0 -535,-240 -535,-535 0,-295 240,-535 535,-535z"/>
    <path class="fil4" d="M1755 4182c-21,265 -234,476 -500,492 -7,0 -14,1 -21,1 -16,0 -31,-1 -46,-2l-237 -292c-54,-65 -86,-149 -86,-240 0,-207 168,-376 374,-376 116,0 219,53 288,137l228 280z"/>
    <g>
     <g>
      <path class="fil0 str4" d="M1437 4049c-22,-47 -59,-85 -106,-106l59 -142 47 248z"/>
     </g>
     <g>
      <path class="fil0 str4" d="M1390 3801l2 1c83,37 150,105 187,188l-142 59 -47 -248z"/>
     </g>
     <g>
      <path class="fil0 str4" d="M1151 3943l-1 1c-47,21 -84,59 -105,105l-142 -59 248 -47z"/>
     </g>
     <g>
      <path class="fil0 str4" d="M903 3990c37,-84 105,-152 189,-189l59 142 -248 47z"/>
     </g>
     <g>
      <path class="fil0 str4" d="M897 4005l3 1 139 58c-9,23 -14,49 -14,75 0,26 5,52 14,75l-142 -209z"/>
     </g>
     <g>
      <path class="fil0 str4" d="M897 4273c-17,-42 -25,-87 -25,-134 0,-47 9,-92 25,-134l142 209 -142 59z"/>
     </g>
     <g>
      <path class="fil0 str4" d="M1045 4229c1,2 2,5 4,7 22,44 58,79 102,99l-59 142 -47 -248z"/>
     </g>
     <g>
      <path class="fil0 str4" d="M1092 4477c-84,-37 -152,-105 -189,-189l142 -59 47 248z"/>
     </g>
     <g>
      <path class="fil0 str4" d="M1107 4483l59 -142c23,9 48,14 75,14 26,0 52,-5 75,-14l-209 142z"/>
     </g>
     <g>
      <path class="fil0 str4" d="M1375 4483c-42,16 -87,25 -134,25 -47,0 -93,-9 -134,-25l209 -142 59 142z"/>
     </g>
     <g>
      <path class="fil0 str4" d="M1331 4335c47,-21 84,-59 106,-106l142 59 -248 47z"/>
     </g>
     <g>
      <path class="fil0 str4" d="M1579 4288c-37,84 -105,152 -189,189l-59 -142 248 -47z"/>
     </g>
     <g>
      <path class="fil0 str4" d="M1375 3795l-1 2 -58 140c-23,-9 -49,-14 -75,-14 -27,0 -52,5 -75,14l209 -142z"/>
     </g>
     <g>
      <path class="fil0 str4" d="M1241 3770c47,0 92,9 134,25l-209 142 -59 -142c41,-16 87,-25 134,-25z"/>
     </g>
    </g>
   </g>
   <path class="fil13" d="M1944 4122c0,129 44,157 101,157 48,-1 97,0 142,-19l0 -44c0,0 -67,5 -120,5 -42,0 -56,-15 -56,-97 0,-98 20,-102 56,-102 52,0 116,4 116,4l0 -43c-47,-13 -108,-17 -138,-17 -59,0 -101,26 -101,156zm342 4c0,-94 18,-104 72,-104 55,0 71,10 71,104 0,89 -20,95 -71,95 -49,0 -72,-7 -72,-95zm-67 0c0,110 34,153 139,153 106,0 138,-39 138,-153 0,-122 -33,-160 -138,-160 -103,0 -139,35 -139,160zm387 0c0,-94 17,-104 72,-104 55,0 71,10 71,104 0,89 -20,95 -71,95 -49,0 -72,-7 -72,-95zm-67 0c0,110 34,153 139,153 106,0 138,-39 138,-153 0,-122 -34,-160 -138,-160 -103,0 -139,35 -139,160zm393 -49c0,-26 7,-52 45,-52l39 0c34,0 44,17 45,52 1,28 -8,55 -45,55l-41 0c-35,0 -43,-27 -43,-55zm0 259l0 -60c0,0 11,3 25,3l81 0c27,0 34,11 34,32l0 27c0,21 -6,37 -37,37l-62 0c-20,0 -41,-4 -41,-39l0 0zm-69 -122c0,24 11,44 27,55l-25 31 0 43c0,61 40,89 94,89l87 0c75,0 93,-49 93,-89l0 -35c0,-57 -33,-87 -85,-87l-105 0c-13,0 -24,-3 -24,-16 0,-14 15,-15 24,-15l78 0c85,0 101,-66 101,-107 0,-39 -8,-50 -14,-63l39 -10 0 -43 -184 1c-67,0 -104,36 -104,109 0,31 8,69 34,85 -25,6 -36,29 -36,52zm391 -137c0,-26 7,-52 46,-52l38 0c35,0 45,17 46,52 1,28 -9,55 -45,55l-41 0c-35,0 -44,-27 -44,-55zm0 259l0 -60c0,0 12,3 25,3l82 0c27,0 33,11 33,32l0 27c0,21 -5,37 -36,37l-62 0c-21,0 -42,-4 -42,-39l0 0zm-68 -122c0,24 11,44 27,55l-26 31 0 43c0,61 40,89 95,89l86 0c76,0 94,-49 94,-89l0 -35c0,-57 -33,-87 -86,-87l-104 0c-13,0 -24,-3 -24,-16 0,-14 15,-15 24,-15l78 0c85,0 101,-66 101,-107 0,-39 -8,-50 -14,-63l39 -10 0 -43 -185 1c-66,0 -104,36 -104,109 0,31 9,69 34,85 -24,6 -35,29 -35,52zm377 -115c0,-76 19,-78 70,-78 48,0 55,7 55,53 0,17 -9,25 -29,25l-96 0zm-67 22c0,115 23,158 101,158 48,0 108,-2 153,-17l0 -46c-44,6 -76,6 -125,6 -44,0 -62,-9 -62,-70l109 0c56,0 83,-24 83,-75 0,-102 -42,-111 -125,-111 -96,0 -134,21 -134,155zm308 155l68 0 0 -210c28,-26 53,-34 91,-34 17,0 36,1 43,3l0 -66c-7,-3 -22,-4 -37,-4 -41,0 -71,22 -97,42l-13 -38 -55 0 0 307z"/>
   <path class="fil14" d="M5917 4129c0,129 44,156 101,156 48,0 97,1 142,-18l0 -44c0,0 -67,5 -120,5 -42,0 -56,-16 -56,-98 0,-97 20,-101 56,-101 52,0 116,4 116,4l0 -43c-46,-14 -108,-18 -138,-18 -59,0 -101,27 -101,157zm342 4c0,-95 18,-104 72,-104 55,0 71,9 71,104 0,89 -19,95 -71,95 -49,0 -72,-7 -72,-95zm-67 0c0,110 34,152 139,152 106,0 138,-38 138,-152 0,-122 -33,-161 -138,-161 -103,0 -139,36 -139,161zm387 0c0,-95 18,-104 72,-104 55,0 71,9 71,104 0,89 -20,95 -71,95 -49,0 -72,-7 -72,-95zm-67 0c0,110 34,152 139,152 106,0 138,-38 138,-152 0,-122 -33,-161 -138,-161 -103,0 -139,36 -139,161zm393 -49c0,-26 7,-52 45,-52l39 0c34,0 44,17 45,52 2,27 -8,55 -45,55l-41 0c-35,0 -43,-27 -43,-55zm0 259l0 -61c0,0 11,3 25,3l81 0c27,0 34,12 34,33l0 26c0,22 -6,38 -37,38l-62 0c-20,0 -41,-4 -41,-39l0 0zm-68 -122c0,24 10,44 26,54l-25 32 0 43c0,60 40,89 94,89l87 0c76,0 93,-49 93,-89l0 -35c0,-57 -33,-87 -85,-87l-105 0c-13,0 -24,-3 -24,-17 0,-14 15,-15 24,-15l78 0c85,0 101,-66 101,-107 0,-38 -8,-49 -13,-62l38 -11 0 -42 -184 1c-67,0 -104,36 -104,109 0,30 8,68 34,84 -25,7 -35,30 -35,53zm391 -137c0,-26 6,-52 45,-52l38 0c35,0 45,17 46,52 1,27 -9,55 -45,55l-41 0c-35,0 -43,-27 -43,-55zm0 259l0 -61c0,0 11,3 24,3l82 0c27,0 34,12 34,33l0 26c0,22 -6,38 -37,38l-62 0c-21,0 -41,-4 -41,-39l0 0zm-69 -122c0,24 11,44 27,54l-26 32 0 43c0,60 40,89 95,89l86 0c76,0 94,-49 94,-89l0 -35c0,-57 -33,-87 -85,-87l-105 0c-13,0 -24,-3 -24,-17 0,-14 15,-15 24,-15l78 0c85,0 101,-66 101,-107 0,-38 -8,-49 -14,-62l39 -11 0 -42 -184 1c-67,0 -105,36 -105,109 0,30 9,68 35,84 -25,7 -36,30 -36,53zm377 -115c0,-76 19,-78 70,-78 48,0 55,6 55,53 0,16 -9,25 -29,25l-96 0zm-67 21c0,116 23,158 101,158 48,0 108,-1 153,-16l0 -47c-44,7 -76,7 -125,7 -44,0 -62,-9 -62,-70l109 0c56,0 83,-24 83,-76 0,-101 -42,-110 -125,-110 -96,0 -134,21 -134,154zm309 155l67 0 0 -209c29,-26 53,-34 91,-34 17,0 36,1 43,2l0 -65c-7,-3 -22,-4 -37,-4 -41,0 -71,22 -97,42l-13 -39 -54 0 0 307z"/>
  </g>
  <g>
   <g>
    <path class="fil15" d="M5311 5601l8 4 -2 -6 5 2 4 2 5 3 4 2 5 3 4 2 4 3 4 3 5 3 4 3 4 3 4 3 3 3 4 3 4 4 4 3 3 4 4 4 3 3 3 4 3 4 4 4 3 4 3 4 2 4 3 4 3 4 3 5 2 4 2 5 3 4 2 5 -9 3 -2 -4 -2 -4 -2 -5 -3 -4 -2 -4 -3 -4 -2 -4 -3 -4 -3 -4 -3 -4 -3 -3 -3 -4 -3 -4 -3 -3 -4 -4 -3 -3 -4 -4 -3 -3 -4 -3 -3 -3 -4 -3 -4 -3 -4 -3 -4 -3 -4 -2 -4 -3 -4 -3 -4 -2 -5 -2 -4 -3 -4 -2 -5 -2 -2 -6zm2 6c-2,-1 -3,-4 -2,-6 1,-2 4,-3 6,-2l-4 8zm68 -147l-62 145 -8 -4 61 -145 9 1 0 3zm-9 -4c1,-2 4,-3 6,-2 2,1 4,4 3,6l-9 -4zm49 256l-49 -253 9 -2 49 254 -9 2 0 -1zm9 -1c1,2 -1,4 -3,5 -3,0 -5,-1 -6,-4l9 -1z"/>
   </g>
   <g>
    <path class="fil15" d="M5377 5463l-3 -1 4 -8 3 1 0 0 -4 8zm4 -8c2,1 3,4 2,6 -1,2 -4,3 -6,2l4 -8zm194 201l-3 -9 -3 6 -3 -8 -4 -7 -4 -8 -4 -8 -5 -7 -4 -7 -5 -8 -5 -7 -5 -7 -5 -7 -5 -6 -6 -7 -5 -6 -6 -7 -6 -6 -6 -6 -6 -6 -6 -6 -7 -6 -6 -5 -7 -6 -7 -5 -7 -5 -7 -5 -7 -5 -8 -4 -7 -5 -8 -4 -7 -4 -8 -4 -8 -4 -8 -4 4 -8 8 4 8 4 8 4 8 4 8 4 7 5 8 5 7 5 7 5 8 5 7 5 7 6 6 6 7 5 6 6 7 6 6 7 6 6 6 7 6 6 5 7 6 7 5 7 5 7 5 7 5 8 4 7 5 8 4 8 4 8 4 8 4 8 -3 6zm3 -6c1,2 0,5 -3,6 -2,1 -5,0 -6,-3l9 -3zm-154 57l148 -60 3 9 -148 60 -6 -4 3 -5zm3 9c-2,1 -5,0 -6,-3 -1,-2 1,-5 3,-6l3 9zm-46 -259l49 254 -9 1 -49 -253 6 -5 3 3zm-9 2c-1,-3 1,-5 3,-5 3,-1 5,1 6,3l-9 2z"/>
   </g>
   <g>
    <path class="fil15" d="M5124 5600l2 -1 4 8 -2 1 -4 -8 0 0zm4 8c-2,1 -5,0 -6,-2 -1,-3 0,-5 2,-6l4 8zm-112 108l3 -9 -6 3 2 -5 3 -4 2 -5 2 -4 3 -4 3 -5 2 -4 3 -4 3 -4 3 -4 3 -4 3 -3 4 -4 3 -4 3 -3 4 -4 3 -3 4 -4 4 -3 4 -3 4 -4 3 -3 4 -3 5 -2 4 -3 4 -3 4 -3 5 -2 4 -3 4 -2 5 -2 4 -2 4 8 -4 2 -4 2 -5 2 -4 3 -4 2 -4 3 -4 2 -4 3 -4 3 -4 3 -4 3 -3 3 -4 3 -4 3 -3 3 -3 3 -4 4 -3 3 -3 4 -3 3 -3 4 -3 4 -3 4 -3 3 -3 4 -2 4 -3 4 -2 4 -3 5 -2 4 -2 4 -2 4 -6 3zm6 -3c-1,3 -4,4 -7,3 -2,-1 -3,-4 -2,-6l9 3zm-151 -66l148 60 -3 9 -148 -60 1 -9 2 0zm-3 9c-3,-1 -4,-4 -3,-6 1,-3 4,-4 6,-3l-3 9zm261 -48l-259 48 -1 -9 258 -48 3 8 -1 1zm-2 -9c3,-1 5,1 6,3 0,3 -2,5 -4,6l-2 -9z"/>
   </g>
   <g>
    <path class="fil15" d="M5071 5456l-9 4 7 2 -8 4 -8 4 -8 4 -8 4 -8 4 -7 5 -8 4 -7 5 -7 5 -7 5 -7 5 -7 6 -7 5 -6 6 -7 6 -6 6 -6 6 -6 6 -6 7 -6 6 -5 7 -6 7 -5 7 -5 7 -5 7 -5 7 -4 8 -4 7 -5 8 -4 7 -4 8 -3 8 -9 -3 4 -9 4 -8 4 -7 4 -8 5 -8 5 -8 4 -7 5 -7 6 -8 5 -7 5 -7 6 -7 6 -6 6 -7 6 -6 6 -7 7 -6 6 -6 7 -6 7 -5 7 -6 7 -5 7 -5 8 -6 7 -4 8 -5 8 -5 7 -4 8 -4 8 -4 9 -4 8 -4 6 2zm-6 -2c2,-1 5,0 6,2 1,3 0,5 -2,6l-4 -8zm59 151l-62 -145 9 -4 61 145 -3 7 -5 -3zm8 -4c1,3 0,5 -2,6 -3,1 -5,0 -6,-2l8 -4zm-263 46l258 -48 2 9 -259 48 -5 -6 4 -3zm1 9c-2,0 -5,-1 -5,-4 -1,-2 1,-5 4,-5l1 9z"/>
   </g>
   <g>
    <path class="fil15" d="M4865 5672l-4 -1 4 -9 3 2 0 0 -3 8zm3 -8c3,0 4,3 3,5 -1,3 -4,4 -6,3l3 -8zm141 67l-144 -59 3 -8 145 58 2 6 -6 3zm4 -9c2,1 3,4 2,6 -1,2 -3,4 -6,3l4 -9zm-11 81l-10 0 0 0 0 -3 1 -2 0 -3 0 -2 0 -3 0 -2 0 -3 0 -2 1 -3 0 -2 0 -3 1 -2 0 -3 0 -2 1 -3 0 -2 1 -3 0 -2 1 -3 0 -2 1 -2 0 -3 1 -2 1 -3 0 -2 1 -2 1 -3 0 -2 1 -2 1 -3 1 -2 1 -2 8 3 0 2 -1 2 -1 3 -1 2 0 2 -1 2 -1 3 0 2 -1 2 -1 2 0 3 -1 2 0 2 -1 3 0 2 -1 2 0 3 -1 2 0 2 0 3 -1 2 0 3 0 2 0 2 -1 3 0 2 0 3 0 2 0 3 0 2 0 3 0 2 0 0zm5 79l8 -5 -8 4 -1 -2 -1 -2 -1 -3 -1 -2 0 -2 -1 -3 -1 -2 0 -2 -1 -3 -1 -2 0 -3 -1 -2 0 -2 -1 -3 0 -2 -1 -3 0 -2 -1 -3 0 -2 0 -3 -1 -2 0 -3 0 -2 -1 -3 0 -2 0 -3 0 -2 0 -3 0 -2 0 -3 -1 -2 0 -3 10 0 0 3 0 2 0 2 0 3 0 2 0 3 0 2 1 3 0 2 0 2 0 3 1 2 0 3 0 2 1 2 0 3 1 2 0 2 1 3 0 2 1 2 0 3 1 2 1 2 0 3 1 2 1 2 0 2 1 3 1 2 1 2 0 2 -8 4zm8 -4c1,2 0,5 -2,6 -3,1 -5,0 -6,-3l8 -3zm-148 -214l148 213 -8 5 -148 -213 6 -7 2 2zm-8 5c-1,-2 -1,-5 2,-6 2,-2 5,-1 6,1l-8 5z"/>
   </g>
   <g>
    <path class="fil15" d="M4832 5803l10 0 0 0 0 5 0 4 0 4 0 5 0 4 1 5 0 4 0 4 1 5 0 4 1 4 0 5 1 4 1 4 1 5 0 4 1 4 1 4 1 4 1 5 1 4 1 4 1 4 1 4 2 4 1 4 1 4 2 4 1 4 1 4 2 4 1 4 -8 3 -2 -4 -1 -4 -2 -4 -1 -4 -2 -4 -1 -4 -1 -4 -2 -4 -1 -5 -1 -4 -1 -4 -1 -4 -1 -5 -1 -4 -1 -4 -1 -5 -1 -4 0 -4 -1 -5 -1 -4 0 -4 -1 -5 0 -4 -1 -5 0 -4 -1 -5 0 -4 0 -5 0 -4 -1 -5 0 -4 0 -5 0 0zm35 -139l-8 5 8 -1 -1 4 -2 4 -1 4 -1 4 -2 4 -1 4 -1 4 -2 4 -1 4 -1 4 -1 4 -1 5 -1 4 -1 4 -1 4 -1 4 0 5 -1 4 -1 4 -1 4 0 5 -1 4 0 4 -1 5 0 4 0 4 -1 5 0 4 0 5 0 4 0 5 0 4 -10 0 0 -4 0 -5 1 -5 0 -4 0 -5 0 -4 1 -5 0 -4 1 -5 0 -4 1 -4 0 -5 1 -4 1 -5 0 -4 1 -4 1 -5 1 -4 1 -4 1 -5 1 -4 1 -4 1 -4 1 -4 2 -5 1 -4 1 -4 2 -4 1 -4 2 -4 1 -4 2 -4 8 -1zm-8 1c1,-3 3,-4 6,-3 2,1 3,4 2,6l-8 -3zm148 217l-148 -213 8 -5 148 213 -2 7 -6 -2zm8 -5c1,2 1,5 -1,6 -2,2 -5,1 -7,-1l8 -5zm-154 59l148 -61 4 9 -148 60 -6 -3 2 -5zm4 8c-2,1 -5,0 -6,-2 -1,-3 0,-5 2,-6l4 8z"/>
   </g>
   <g>
    <path class="fil15" d="M5025 5900l-8 5 0 0 0 -1 0 0 0 0 0 0 0 -1 -1 0 0 0 0 0 0 -1 0 0 0 0 0 0 0 -1 -1 0 0 0 0 0 0 -1 0 0 0 0 0 0 0 -1 -1 0 0 0 0 0 0 -1 0 0 0 0 0 0 0 -1 -1 0 0 0 0 0 9 -4 0 0 0 0 0 1 0 0 0 0 0 0 0 0 1 1 0 0 0 0 0 0 0 1 0 0 0 0 0 0 1 1 0 0 0 0 0 0 0 1 0 0 0 0 0 0 0 0 1 1 0 0 0 0 0 0 0 1 0 0 0 0 0 0 0 0zm0 0c2,3 1,5 -2,7 -2,1 -5,0 -6,-2l8 -5zm107 105l-8 -4 2 6 -4 -2 -5 -2 -4 -2 -4 -2 -4 -3 -4 -2 -4 -3 -4 -2 -4 -3 -4 -3 -4 -3 -4 -3 -4 -3 -3 -3 -4 -3 -3 -3 -4 -3 -3 -4 -3 -3 -4 -4 -3 -3 -3 -4 -3 -4 -3 -3 -2 -4 -3 -4 -3 -4 -2 -4 -3 -4 -2 -4 -3 -4 -2 -4 8 -5 3 4 2 4 2 4 3 4 2 4 3 4 2 4 3 3 3 4 3 3 2 4 3 3 4 4 3 3 3 3 3 3 4 3 3 3 3 3 4 3 4 3 3 3 4 2 4 3 4 3 3 2 4 2 4 3 5 2 4 2 4 2 4 2 2 6zm-2 -6c2,1 3,4 2,6 -1,2 -4,3 -6,2l4 -8zm-68 147l62 -145 8 4 -61 145 -9 -1 0 -3zm9 4c-1,2 -4,3 -6,2 -2,-1 -4,-3 -3,-6l9 4zm-49 -256l49 253 -9 2 -49 -253 9 -3 0 1zm-9 2c-1,-3 1,-5 4,-6 2,0 5,1 5,4l-9 2z"/>
   </g>
   <g>
    <path class="fil15" d="M4868 5951l3 8 3 -6 3 8 4 8 4 7 5 8 4 8 4 7 5 7 5 7 5 7 5 7 6 7 5 7 6 6 6 7 6 6 6 6 6 6 7 6 6 6 7 5 7 6 7 5 7 5 7 5 7 5 8 5 7 4 8 4 8 5 8 3 8 4 8 4 -4 8 -8 -3 -9 -4 -8 -4 -8 -5 -7 -4 -8 -5 -8 -4 -7 -5 -8 -5 -7 -6 -7 -5 -7 -6 -7 -5 -7 -6 -6 -6 -7 -6 -6 -7 -6 -6 -6 -7 -6 -6 -6 -7 -5 -7 -5 -7 -6 -7 -5 -8 -4 -7 -5 -8 -5 -8 -4 -7 -4 -8 -4 -8 -4 -8 3 -6zm-3 6c-1,-3 0,-5 3,-6 2,-1 5,0 6,2l-9 4zm154 -58l-148 60 -3 -8 148 -61 6 4 -3 5zm-3 -9c2,0 5,1 6,3 1,2 0,5 -3,6l-3 -9zm46 259l-49 -253 9 -2 49 253 -6 5 -3 -3zm9 -2c1,3 -1,5 -3,6 -3,0 -5,-2 -6,-4l9 -2z"/>
   </g>
   <g>
    <path class="fil15" d="M5148 6011l-62 145 -8 -3 61 -145 6 -3 3 6zm-9 -3c1,-3 4,-4 6,-3 2,1 4,4 3,6l-9 -3zm83 10l0 10 0 0 -3 0 -3 -1 -2 0 -3 0 -3 0 -2 0 -3 0 -2 0 -3 -1 -2 0 -3 0 -2 0 -3 -1 -3 0 -2 -1 -3 0 -2 -1 -3 0 -2 -1 -2 0 -3 -1 -2 0 -3 -1 -2 0 -3 -1 -2 -1 -2 -1 -3 0 -2 -1 -3 -1 -2 -1 -2 0 3 -9 2 1 2 1 3 0 2 1 2 1 3 0 2 1 2 1 3 0 2 1 2 1 3 0 2 1 2 0 3 1 2 0 2 0 3 1 2 0 3 0 2 1 3 0 2 0 3 1 2 0 3 0 2 0 2 0 3 0 3 0 2 0 3 0 0 0zm80 -5l-5 -7 4 8 -2 0 -2 1 -3 1 -2 1 -2 0 -3 1 -2 1 -3 1 -2 0 -2 1 -3 0 -2 1 -3 0 -2 1 -3 0 -2 1 -3 0 -2 1 -3 0 -2 1 -3 0 -2 0 -3 0 -3 1 -2 0 -3 0 -2 0 -3 0 -3 0 -2 0 -3 1 -2 0 0 -10 2 0 3 0 2 0 3 0 2 0 3 0 2 0 3 0 2 -1 2 0 3 0 2 -1 3 0 2 0 3 -1 2 0 2 0 3 -1 2 0 3 -1 2 0 2 -1 3 -1 2 0 2 -1 3 -1 2 0 2 -1 2 -1 3 0 2 -1 2 -1 4 8zm-4 -8c3,-1 5,0 6,3 1,2 0,5 -3,6l-3 -9zm-219 145l218 -144 5 7 -217 145 -7 -5 1 -3zm6 8c-2,1 -5,1 -7,-1 -1,-2 -1,-5 1,-7l6 8z"/>
   </g>
   <g>
    <path class="fil15" d="M5222 6184l0 -9 0 0 4 0 5 0 4 0 5 0 4 0 5 -1 4 0 5 0 4 -1 4 0 5 -1 4 0 5 -1 4 -1 4 0 5 -1 4 -1 4 -1 5 -1 4 -1 4 -1 4 -1 4 -1 5 -1 4 -1 4 -2 4 -1 4 -1 4 -2 4 -1 4 -1 4 -2 4 8 -4 2 -5 2 -4 1 -4 1 -4 2 -4 1 -5 1 -4 2 -4 1 -4 1 -5 1 -4 1 -4 1 -5 1 -4 1 -5 1 -4 0 -4 1 -5 1 -4 1 -5 0 -4 1 -5 0 -5 1 -4 0 -5 0 -4 1 -5 0 -5 0 -4 0 -5 0 -4 0 0 0zm-143 -34l6 8 -1 -8 4 2 4 1 4 1 4 2 4 1 4 1 4 2 4 1 5 1 4 1 4 1 4 1 5 1 4 1 4 1 4 1 5 1 4 0 4 1 5 1 4 0 5 1 4 0 5 1 4 0 4 0 5 1 4 0 5 0 4 0 5 0 5 0 0 9 -5 0 -5 0 -4 0 -5 0 -5 0 -4 -1 -5 0 -4 0 -5 -1 -4 0 -5 -1 -4 0 -5 -1 -4 -1 -5 -1 -4 0 -5 -1 -4 -1 -5 -1 -4 -1 -4 -1 -5 -1 -4 -1 -4 -1 -4 -2 -5 -1 -4 -1 -4 -2 -4 -1 -4 -1 -5 -2 -4 -2 -1 -8zm1 8c-2,0 -3,-3 -2,-5 1,-3 3,-4 6,-3l-4 8zm222 -145l-217 145 -6 -8 218 -144 7 2 -2 5zm-5 -7c2,-2 5,-1 7,1 1,2 0,5 -2,6l-5 -7zm60 150l-62 -145 9 -3 61 145 -2 5 -6 -2zm8 -3c1,2 0,5 -2,5 -3,1 -5,0 -6,-2l8 -3z"/>
   </g>
   <g>
    <path class="fil15" d="M5427 5890l-3 9 6 -2 -2 4 -3 5 -2 4 -2 4 -3 5 -3 4 -3 4 -2 4 -3 4 -3 4 -4 4 -3 4 -3 4 -3 4 -4 3 -3 4 -4 3 -4 4 -4 3 -3 3 -4 3 -4 3 -4 3 -5 3 -4 3 -4 3 -4 2 -5 3 -4 2 -5 3 -4 2 -5 2 -4 -8 5 -2 4 -2 4 -3 5 -2 4 -2 4 -3 4 -2 4 -3 4 -3 4 -3 4 -3 4 -3 3 -3 4 -3 3 -3 4 -4 3 -3 4 -4 3 -3 3 -4 3 -3 3 -4 3 -4 3 -4 3 -4 2 -4 3 -4 2 -4 3 -4 2 -5 2 -4 2 -4 6 -3zm-6 3c2,-3 4,-4 7,-2 2,1 3,3 2,6l-9 -4zm151 66l-148 -60 3 -9 148 61 -1 8 -2 0zm3 -8c3,0 4,3 3,5 -1,3 -4,4 -6,3l3 -8zm-261 48l259 -49 1 9 -258 49 -3 -9 1 0zm2 9c-3,0 -5,-2 -6,-4 0,-3 2,-5 4,-5l2 9z"/>
   </g>
   <g>
    <path class="fil15" d="M5372 6150l9 -4 -7 -2 9 -4 8 -4 7 -3 8 -5 8 -4 7 -4 8 -5 7 -5 7 -5 7 -5 7 -5 7 -6 7 -5 6 -6 7 -6 6 -6 6 -6 6 -6 6 -7 6 -6 5 -7 6 -7 5 -7 5 -7 5 -7 5 -7 4 -7 5 -8 4 -8 4 -7 4 -8 3 -8 9 4 -4 8 -4 8 -4 8 -4 7 -5 8 -4 8 -5 7 -5 8 -6 7 -5 7 -5 7 -6 7 -6 6 -6 7 -6 6 -6 7 -7 6 -6 6 -7 6 -7 5 -7 6 -7 5 -7 6 -8 5 -7 5 -8 4 -7 5 -8 4 -8 5 -8 4 -9 4 -8 3 -6 -2zm6 2c-2,1 -5,0 -6,-2 -1,-2 0,-5 2,-6l4 8zm-59 -151l62 145 -9 4 -61 -145 3 -6 5 2zm-8 4c-1,-3 0,-5 2,-6 3,-1 5,0 6,2l-8 4zm263 -46l-258 49 -2 -9 259 -49 5 7 -4 2zm-1 -9c2,0 5,1 5,4 1,2 -1,5 -4,5l-1 -9z"/>
   </g>
   <g>
    <path class="fil15" d="M5356 5452l1 -2 8 4 -1 2 0 0 -8 -4zm8 4c-1,2 -3,3 -6,2 -2,-1 -3,-3 -2,-6l8 4zm-69 139l61 -143 8 4 -60 143 -6 2 -3 -6zm9 4c-1,2 -4,3 -6,2 -2,-1 -4,-4 -3,-6l9 4zm-82 -11l0 -9 0 0 2 0 3 0 2 0 3 0 3 0 2 0 3 0 2 1 3 0 3 0 2 0 3 1 2 0 3 0 2 1 3 0 2 1 3 0 2 1 3 0 2 1 3 0 2 1 2 1 3 0 2 1 3 1 2 0 2 1 3 1 2 1 2 1 -3 8 -2 -1 -2 0 -3 -1 -2 -1 -2 -1 -2 0 -3 -1 -2 -1 -2 0 -3 -1 -2 0 -2 -1 -3 0 -2 -1 -3 0 -2 -1 -2 0 -3 -1 -2 0 -3 0 -2 -1 -3 0 -2 0 -2 0 -3 -1 -2 0 -3 0 -2 0 -3 0 -2 0 -3 0 -2 0 0 0zm-81 5l5 8 -4 -8 2 -1 2 -1 3 -1 2 -1 3 0 2 -1 2 -1 3 0 2 -1 3 -1 2 0 2 -1 3 0 2 -1 3 0 2 -1 3 0 2 -1 3 0 3 0 2 -1 3 0 2 0 3 0 2 -1 3 0 2 0 3 0 3 0 2 0 3 0 3 0 0 9 -3 0 -2 0 -3 0 -3 0 -2 0 -2 0 -3 0 -2 1 -3 0 -2 0 -3 0 -2 1 -3 0 -2 0 -3 1 -2 0 -2 1 -3 0 -2 1 -2 0 -3 1 -2 0 -2 1 -3 0 -2 1 -2 1 -3 0 -2 1 -2 1 -3 1 -2 0 -2 1 -4 -8zm4 8c-2,1 -5,0 -6,-3 -1,-2 0,-5 3,-5l3 8zm219 -145l-218 145 -5 -8 217 -145 7 6 -1 2zm-6 -8c3,-1 5,-1 7,1 1,2 1,5 -1,7l-6 -8z"/>
   </g>
   <g>
    <path class="fil15" d="M5364 5456l-6 -8 1 8 -4 -1 -4 -2 -4 -1 -4 -2 -4 -1 -4 -1 -4 -2 -4 -1 -5 -1 -4 -1 -4 -1 -4 -1 -4 -1 -5 -1 -4 -1 -4 -1 -5 0 -4 -1 -4 -1 -5 0 -4 -1 -5 -1 -4 0 -4 0 -5 -1 -4 0 -5 0 -4 -1 -5 0 -4 0 -5 0 -4 0 0 -9 4 0 5 0 4 0 5 0 5 0 4 1 5 0 4 0 5 1 5 0 4 1 5 1 4 0 5 1 4 1 4 0 5 1 4 1 5 1 4 1 4 1 5 1 4 1 4 2 4 1 5 1 4 1 4 2 4 1 4 2 5 1 4 2 1 8zm-1 -8c2,1 3,3 2,6 -1,2 -3,3 -6,2l4 -8zm-222 145l217 -145 6 8 -218 145 -7 -2 2 -6zm5 8c-2,1 -5,0 -7,-2 -1,-2 0,-4 2,-6l5 8zm-60 -151l62 145 -9 4 -61 -145 2 -6 6 2zm-8 4c-1,-3 0,-5 2,-6 3,-1 5,0 6,2l-8 4zm144 -32l0 9 0 0 -5 0 -5 0 -4 0 -5 0 -4 1 -5 0 -4 0 -4 1 -5 0 -4 0 -5 1 -4 1 -5 0 -4 1 -4 1 -5 0 -4 1 -4 1 -4 1 -5 1 -4 1 -4 1 -4 1 -5 1 -4 1 -4 2 -4 1 -4 1 -4 2 -4 1 -4 2 -4 1 -4 -8 4 -2 5 -1 4 -2 4 -1 4 -2 4 -1 5 -1 4 -1 4 -2 4 -1 5 -1 4 -1 4 -1 5 -1 4 -1 5 -1 4 0 5 -1 4 -1 5 0 4 -1 5 -1 4 0 5 -1 4 0 5 0 4 -1 5 0 5 0 4 0 5 0 5 0 0 0z"/>
   </g>
  </g>
  <path class="fil15" d="M5775 5815c0,130 44,157 101,157 48,-1 97,0 142,-19l0 -44c0,0 -67,6 -120,6 -42,0 -56,-16 -56,-98 0,-97 20,-101 56,-101 51,0 116,3 116,3l0 -43c-47,-13 -108,-17 -138,-17 -59,0 -101,27 -101,156zm342 5c0,-95 17,-104 72,-104 55,0 71,9 71,104 0,88 -20,95 -71,95 -49,0 -72,-7 -72,-95zm-67 0c0,110 34,152 139,152 106,0 138,-38 138,-152 0,-122 -33,-161 -138,-161 -103,0 -139,35 -139,161zm387 0c0,-95 17,-104 72,-104 55,0 71,9 71,104 0,88 -20,95 -71,95 -49,0 -72,-7 -72,-95zm-67 0c0,110 33,152 139,152 106,0 138,-38 138,-152 0,-122 -34,-161 -138,-161 -103,0 -139,35 -139,161zm393 -50c0,-26 7,-51 45,-51l38 0c35,0 45,16 46,51 1,28 -9,56 -45,56l-41 0c-35,0 -43,-27 -43,-56zm0 260l0 -61c0,0 11,3 24,3l82 0c27,0 34,11 34,32l0 27c0,21 -6,37 -37,37l-62 0c-21,0 -41,-4 -41,-38l0 0zm-69 -123c0,24 11,45 27,55l-25 31 0 43c0,61 39,89 94,89l87 0c75,0 93,-48 93,-89l0 -35c0,-56 -33,-86 -85,-86l-105 0c-13,0 -24,-3 -24,-17 0,-14 15,-15 24,-15l78 0c85,0 101,-66 101,-107 0,-39 -8,-50 -14,-63l39 -10 0 -42 -184 0c-67,0 -104,36 -104,109 0,31 8,69 34,85 -25,6 -36,29 -36,52zm391 -137c0,-26 7,-51 45,-51l39 0c35,0 45,16 46,51 1,28 -9,56 -45,56l-41 0c-35,0 -44,-27 -44,-56zm0 260l0 -61c0,0 12,3 25,3l82 0c27,0 33,11 33,32l0 27c0,21 -5,37 -36,37l-62 0c-21,0 -42,-4 -42,-38l0 0zm-68 -123c0,24 11,45 27,55l-26 31 0 43c0,61 40,89 95,89l86 0c76,0 93,-48 93,-89l0 -35c0,-56 -32,-86 -85,-86l-104 0c-13,0 -24,-3 -24,-17 0,-14 14,-15 24,-15l78 0c85,0 101,-66 101,-107 0,-39 -8,-50 -14,-63l39 -10 0 -42 -185 0c-66,0 -104,36 -104,109 0,31 9,69 34,85 -24,6 -35,29 -35,52zm377 -114c0,-77 19,-79 70,-79 48,0 55,7 55,54 0,16 -9,25 -29,25l-96 0zm-67 21c0,116 23,158 101,158 48,0 108,-1 152,-16l0 -47c-43,7 -75,6 -124,6 -44,0 -62,-9 -62,-70l109 0c55,0 83,-24 83,-75 0,-102 -42,-110 -125,-110 -96,0 -134,20 -134,154zm308 155l67 0 0 -209c29,-26 54,-35 92,-35 17,0 36,2 43,3l0 -66c-7,-2 -22,-4 -37,-4 -41,0 -71,22 -98,43l-12 -39 -55 0 0 307z"/>
  <rect class="fil2" x="4335" y="6727" width="4335" height="1943"/>
  <rect class="fil3" y="6727" width="4335" height="1943"/>
  <g>
   <g>
    <g>
     <path class="fil7" d="M1306 7490l9 4 -2 -6 4 2 5 2 4 3 5 2 4 3 5 2 4 3 4 3 4 3 4 3 4 3 4 3 4 3 4 4 4 3 3 3 4 4 3 4 4 3 3 4 3 4 3 4 3 4 3 4 3 4 3 4 3 5 2 4 3 4 2 5 2 4 3 5 -9 3 -2 -4 -2 -4 -2 -4 -3 -5 -2 -4 -3 -4 -3 -4 -2 -4 -3 -4 -3 -4 -3 -3 -3 -4 -3 -4 -4 -3 -3 -4 -3 -3 -4 -3 -3 -4 -4 -3 -4 -3 -3 -3 -4 -3 -4 -3 -4 -3 -4 -2 -4 -3 -4 -2 -5 -3 -4 -2 -4 -2 -5 -3 -4 -2 -3 -6zm3 6c-2,-1 -4,-3 -2,-6 1,-2 3,-3 6,-2l-4 8zm67 -147l-61 145 -9 -4 62 -144 9 0 -1 3zm-8 -3c1,-3 3,-4 6,-3 2,1 3,4 2,6l-8 -3zm49 255l-49 -253 9 -2 49 254 -9 2 0 -1zm9 -1c0,2 -1,5 -4,5 -2,1 -5,-1 -5,-4l9 -1z"/>
    </g>
    <g>
     <path class="fil7" d="M1373 7353l-3 -2 4 -8 3 1 0 0 -4 9zm4 -9c2,1 3,4 2,6 -1,3 -4,4 -6,3l4 -9zm194 201l-3 -9 -3 6 -4 -7 -3 -8 -4 -8 -5 -7 -4 -8 -4 -7 -5 -7 -5 -8 -5 -7 -5 -6 -5 -7 -6 -7 -5 -6 -6 -7 -6 -6 -6 -6 -6 -6 -7 -6 -6 -5 -7 -6 -6 -5 -7 -6 -7 -5 -7 -5 -8 -5 -7 -4 -7 -5 -8 -4 -8 -4 -7 -4 -8 -4 -8 -3 4 -9 8 4 8 4 8 4 8 4 7 5 8 4 8 5 7 5 7 5 7 5 7 5 7 6 7 6 7 5 6 6 6 7 7 6 6 6 6 7 5 6 6 7 5 7 6 7 5 7 5 8 5 7 4 8 5 7 4 8 4 8 4 8 4 8 -3 6zm3 -6c1,2 0,5 -3,6 -2,1 -5,0 -6,-3l9 -3zm-154 57l148 -60 3 9 -148 60 -6 -4 3 -5zm3 9c-2,1 -5,0 -6,-3 -1,-2 0,-5 3,-6l3 9zm-46 -259l49 254 -9 1 -49 -253 6 -5 3 3zm-9 2c-1,-2 1,-5 3,-5 3,-1 5,1 6,3l-9 2z"/>
    </g>
    <g>
     <path class="fil7" d="M1120 7489l2 -1 4 8 -2 1 -4 -8 0 0zm4 8c-2,1 -5,0 -6,-2 -1,-2 0,-5 2,-6l4 8zm-113 108l4 -9 -6 3 2 -5 2 -4 3 -5 2 -4 3 -4 2 -4 3 -5 3 -4 3 -4 3 -4 3 -4 3 -3 3 -4 4 -4 3 -3 4 -4 3 -3 4 -4 4 -3 3 -3 4 -3 4 -3 4 -3 4 -3 4 -3 5 -3 4 -2 4 -3 5 -2 4 -3 5 -2 4 -2 4 8 -4 2 -5 2 -4 3 -4 2 -4 2 -4 3 -4 2 -4 3 -4 3 -4 3 -4 3 -4 3 -3 3 -4 3 -3 3 -4 4 -3 3 -3 3 -4 4 -3 3 -3 4 -3 4 -3 4 -2 4 -3 3 -3 4 -2 4 -3 5 -2 4 -2 4 -3 4 -2 4 -6 3zm6 -3c-1,3 -3,4 -6,3 -2,-1 -3,-4 -2,-6l8 3zm-150 -66l148 60 -4 9 -148 -60 1 -9 3 0zm-4 9c-2,-1 -3,-4 -2,-6 1,-3 4,-4 6,-3l-4 9zm262 -48l-259 48 -2 -9 259 -48 3 8 -1 1zm-2 -9c2,-1 5,1 5,3 1,3 -1,5 -3,6l-2 -9z"/>
    </g>
    <g>
     <path class="fil7" d="M1067 7346l-9 3 6 2 -8 4 -8 4 -8 4 -7 4 -8 4 -8 5 -7 4 -7 5 -8 5 -7 5 -7 5 -6 6 -7 5 -7 6 -6 6 -6 6 -6 6 -6 6 -6 7 -6 6 -6 7 -5 7 -5 7 -5 7 -5 7 -5 7 -4 8 -5 7 -4 8 -4 8 -4 7 -4 8 -8 -3 4 -8 4 -8 4 -8 4 -8 5 -8 4 -7 5 -8 5 -7 5 -7 6 -8 5 -7 6 -6 6 -7 6 -7 6 -6 6 -6 7 -7 6 -6 7 -5 7 -6 7 -6 7 -5 7 -5 7 -5 8 -5 8 -5 7 -5 8 -4 8 -4 8 -4 8 -4 9 -4 6 3zm-6 -3c2,-1 5,0 6,2 1,3 0,5 -3,6l-3 -8zm58 151l-61 -145 9 -3 61 144 -3 7 -6 -3zm9 -4c1,3 0,5 -2,6 -3,1 -6,0 -7,-2l9 -4zm-264 46l259 -48 2 9 -259 48 -5 -6 3 -3zm2 9c-2,0 -5,-1 -5,-4 -1,-2 1,-4 3,-5l2 9z"/>
    </g>
    <g>
     <path class="fil7" d="M860 7561l-3 -1 4 -9 3 2 0 0 -4 8zm4 -8c2,1 3,3 2,6 0,2 -3,3 -6,2l4 -8zm141 67l-145 -59 4 -8 145 58 2 6 -6 3zm4 -9c2,1 3,4 2,6 -1,3 -4,4 -6,3l4 -9zm-12 81l-9 0 0 0 0 -2 0 -3 0 -2 0 -3 1 -3 0 -2 0 -3 0 -2 0 -3 1 -2 0 -3 0 -2 1 -3 0 -2 0 -3 1 -2 0 -3 1 -2 0 -2 1 -3 0 -2 1 -3 1 -2 0 -2 1 -3 1 -2 0 -2 1 -3 1 -2 1 -2 1 -3 0 -2 9 3 -1 2 0 3 -1 2 -1 2 -1 2 0 3 -1 2 -1 2 0 2 -1 3 0 2 -1 2 -1 3 0 2 -1 2 0 3 0 2 -1 2 0 3 -1 2 0 2 0 3 0 2 -1 3 0 2 0 2 0 3 0 2 0 3 0 2 -1 3 0 2 0 0zm6 79l8 -5 -9 4 0 -2 -1 -2 -1 -2 -1 -3 -1 -2 0 -2 -1 -3 -1 -2 0 -3 -1 -2 -1 -2 0 -3 -1 -2 0 -3 -1 -2 0 -3 -1 -2 0 -2 0 -3 -1 -2 0 -3 0 -2 -1 -3 0 -2 0 -3 0 -2 0 -3 -1 -3 0 -2 0 -3 0 -2 0 -3 9 0 0 3 1 2 0 3 0 2 0 2 0 3 0 2 0 3 1 2 0 3 0 2 0 2 1 3 0 2 1 3 0 2 0 2 1 3 0 2 1 2 1 3 0 2 1 2 0 2 1 3 1 2 0 2 1 2 1 3 1 2 0 2 1 2 -8 4zm8 -4c1,3 0,5 -3,6 -2,1 -5,0 -6,-3l9 -3zm-148 -214l148 213 -8 5 -148 -213 6 -7 2 2zm-8 5c-1,-2 -1,-5 1,-6 2,-2 5,-1 7,1l-8 5z"/>
    </g>
    <g>
     <path class="fil7" d="M828 7692l9 0 0 0 0 5 1 4 0 5 0 4 0 4 0 5 1 4 0 5 1 4 0 4 1 5 0 4 1 4 1 4 0 5 1 4 1 4 1 4 1 5 1 4 1 4 1 4 1 4 1 4 1 4 2 4 1 4 1 4 2 4 1 4 2 4 1 4 -8 4 -2 -4 -2 -5 -1 -4 -1 -4 -2 -4 -1 -4 -2 -4 -1 -4 -1 -4 -1 -5 -1 -4 -1 -4 -1 -4 -1 -5 -1 -4 -1 -4 -1 -5 -1 -4 0 -4 -1 -5 -1 -4 0 -5 -1 -4 0 -5 -1 -4 0 -5 0 -4 0 -5 -1 -4 0 -5 0 -4 0 -5 0 0zm35 -139l-8 5 8 -1 -1 4 -2 4 -1 4 -2 4 -1 4 -1 4 -2 4 -1 4 -1 4 -1 4 -1 5 -1 4 -1 4 -1 4 -1 4 -1 5 -1 4 0 4 -1 4 -1 5 0 4 -1 4 0 5 -1 4 0 4 -1 5 0 4 0 4 0 5 0 4 -1 5 0 4 -9 0 0 -4 0 -5 0 -4 1 -5 0 -5 0 -4 0 -4 1 -5 0 -4 1 -5 0 -4 1 -5 1 -4 0 -4 1 -5 1 -4 1 -5 1 -4 1 -4 1 -4 1 -5 1 -4 1 -4 1 -4 1 -4 2 -5 1 -4 2 -4 1 -4 1 -4 2 -4 2 -4 8 -1zm-8 1c0,-2 3,-4 6,-3 2,1 3,4 2,6l-8 -3zm148 217l-148 -213 8 -5 148 213 -2 7 -6 -2zm8 -5c1,2 1,5 -2,7 -2,1 -5,0 -6,-2l8 -5zm-154 59l148 -60 4 8 -148 60 -6 -2 2 -6zm4 8c-3,1 -5,0 -6,-2 -1,-3 0,-5 2,-6l4 8z"/>
    </g>
    <g>
     <path class="fil7" d="M1021 7790l-8 4 0 0 0 -1 0 0 -1 0 0 0 0 -1 0 0 0 0 0 0 0 -1 0 0 -1 0 0 0 0 -1 0 0 0 0 0 0 0 -1 0 0 0 0 -1 0 0 -1 0 0 0 0 0 0 0 -1 0 0 0 0 -1 0 0 -1 0 0 0 0 0 0 8 -4 1 0 0 0 0 1 0 0 0 0 0 0 0 1 0 0 0 0 1 0 0 1 0 0 0 0 0 0 0 0 0 1 0 0 0 0 1 0 0 1 0 0 0 0 0 0 0 1 0 0 0 0 1 0 0 1 0 0 0 0 0 0 0 1 0 0zm0 0c1,2 0,5 -2,6 -2,1 -5,0 -6,-2l8 -4zm107 104l-9 -4 3 6 -5 -2 -4 -2 -4 -2 -4 -2 -5 -3 -4 -2 -4 -3 -4 -2 -4 -3 -4 -3 -3 -3 -4 -3 -4 -3 -3 -3 -4 -3 -4 -3 -3 -3 -3 -4 -4 -3 -3 -4 -3 -3 -3 -4 -3 -3 -3 -4 -3 -4 -2 -4 -3 -4 -3 -4 -2 -4 -3 -4 -2 -4 -2 -4 8 -4 2 4 3 4 2 3 2 4 3 4 2 4 3 4 3 3 2 4 3 3 3 4 3 3 3 4 3 3 4 3 3 3 3 4 4 3 3 3 4 2 3 3 4 3 4 3 3 2 4 3 4 2 4 2 4 3 4 2 4 2 5 2 4 2 2 6zm-2 -6c2,1 3,4 2,6 -1,2 -4,3 -6,2l4 -8zm-68 147l61 -145 9 4 -61 145 -9 -1 0 -3zm9 4c-1,2 -4,3 -6,2 -3,-1 -4,-3 -3,-6l9 4zm-49 -256l49 253 -9 2 -49 -253 8 -3 1 1zm-9 2c-1,-3 1,-5 3,-6 3,0 5,2 6,4l-9 2z"/>
    </g>
    <g>
     <path class="fil7" d="M863 7840l4 8 2 -6 4 8 4 8 4 8 4 7 5 8 4 7 5 7 5 8 5 7 5 6 5 7 6 7 6 7 6 6 6 6 6 6 6 6 6 6 7 6 7 6 6 5 7 5 7 5 8 5 7 5 7 5 8 4 8 5 7 4 8 4 8 3 8 4 -3 8 -9 -3 -8 -4 -8 -4 -8 -5 -8 -4 -7 -4 -8 -5 -8 -5 -7 -5 -7 -5 -7 -6 -7 -5 -7 -6 -7 -6 -6 -6 -7 -6 -6 -6 -6 -7 -6 -6 -6 -7 -6 -7 -5 -7 -6 -7 -5 -7 -5 -8 -5 -7 -4 -8 -5 -7 -4 -8 -4 -8 -4 -8 -4 -8 2 -6zm-2 6c-1,-3 0,-5 2,-6 3,-1 5,0 6,2l-8 4zm154 -58l-148 60 -4 -8 148 -60 7 3 -3 5zm-4 -8c3,-1 5,0 6,2 1,2 0,5 -2,6l-4 -8zm47 258l-49 -253 9 -2 49 253 -6 5 -3 -3zm9 -2c1,3 -1,5 -4,6 -2,0 -5,-2 -5,-4l9 -2z"/>
    </g>
    <g>
     <path class="fil7" d="M1143 7900l-61 145 -9 -3 62 -145 6 -3 2 6zm-8 -3c1,-3 3,-4 6,-3 2,1 3,4 2,6l-8 -3zm82 11l0 9 0 0 -2 0 -3 0 -3 0 -2 -1 -3 0 -2 0 -3 0 -3 0 -2 0 -3 -1 -2 0 -3 0 -2 -1 -3 0 -2 0 -3 -1 -2 0 -3 -1 -2 0 -3 -1 -2 0 -3 -1 -2 -1 -3 0 -2 -1 -2 -1 -3 0 -2 -1 -3 -1 -2 -1 -2 0 -3 -1 4 -9 2 1 2 1 2 0 3 1 2 1 2 1 3 0 2 1 2 1 3 0 2 1 2 0 3 1 2 0 2 1 3 0 2 1 3 0 2 0 2 1 3 0 2 0 3 0 2 1 3 0 2 0 3 0 2 0 3 0 2 1 3 0 2 0 0 0zm81 -6l-5 -7 4 8 -2 1 -3 0 -2 1 -2 1 -3 1 -2 0 -2 1 -3 1 -2 0 -3 1 -2 1 -3 0 -2 1 -3 0 -2 1 -3 0 -2 1 -3 0 -2 0 -3 1 -2 0 -3 0 -2 1 -3 0 -2 0 -3 0 -3 0 -2 0 -3 1 -2 0 -3 0 -3 0 0 -9 3 0 2 0 3 -1 2 0 3 0 2 0 3 0 2 0 3 -1 2 0 3 0 2 0 2 -1 3 0 2 0 3 -1 2 0 3 -1 2 0 2 -1 3 0 2 -1 2 0 3 -1 2 -1 2 0 3 -1 2 -1 2 -1 2 0 3 -1 2 -1 4 8zm-4 -8c2,-1 5,0 6,3 1,2 0,5 -3,6l-3 -9zm-219 146l218 -145 5 7 -218 145 -7 -5 2 -2zm5 7c-2,2 -5,1 -6,-1 -2,-2 -1,-5 1,-6l5 7z"/>
    </g>
    <g>
     <path class="fil7" d="M1217 8074l0 -10 0 0 5 0 4 0 5 0 4 0 5 0 4 -1 5 0 4 0 5 -1 4 0 5 -1 4 0 4 -1 5 -1 4 0 4 -1 5 -1 4 -1 4 -1 5 -1 4 -1 4 -1 4 -1 4 -1 5 -1 4 -1 4 -2 4 -1 4 -1 4 -2 4 -1 4 -2 3 9 -4 1 -4 2 -4 1 -4 2 -4 1 -5 1 -4 2 -4 1 -4 1 -5 1 -4 1 -4 1 -5 1 -4 1 -4 1 -5 1 -4 1 -5 0 -4 1 -5 1 -4 0 -5 1 -4 0 -5 1 -4 0 -5 1 -5 0 -4 0 -5 0 -4 0 -5 0 -5 1 0 0zm-142 -34l5 7 -1 -8 4 2 5 1 4 2 4 1 4 1 4 2 4 1 4 1 4 1 5 1 4 1 4 1 4 1 5 1 4 1 4 1 4 1 5 0 4 1 5 1 4 0 4 1 5 0 4 1 5 0 4 0 5 1 4 0 5 0 4 0 5 0 4 0 0 10 -4 -1 -5 0 -5 0 -4 0 -5 0 -4 0 -5 -1 -5 0 -4 -1 -5 0 -4 -1 -5 0 -4 -1 -5 -1 -4 0 -5 -1 -4 -1 -4 -1 -5 -1 -4 -1 -4 -1 -5 -1 -4 -1 -4 -1 -5 -2 -4 -1 -4 -1 -4 -1 -5 -2 -4 -1 -4 -2 -4 -1 -1 -8zm1 8c-2,-1 -3,-4 -3,-6 1,-3 4,-4 6,-3l-3 9zm222 -146l-218 145 -5 -7 218 -145 7 2 -2 5zm-5 -7c2,-2 5,-1 6,1 2,2 1,5 -1,6l-5 -7zm59 150l-61 -145 9 -3 61 145 -3 6 -6 -3zm9 -3c1,2 0,5 -2,6 -3,1 -6,-1 -7,-3l9 -3z"/>
    </g>
    <g>
     <path class="fil7" d="M1423 7780l-3 8 6 -2 -3 4 -2 5 -2 4 -3 5 -2 4 -3 4 -3 4 -3 4 -3 5 -3 3 -3 4 -3 4 -3 4 -4 4 -3 3 -4 4 -3 3 -4 4 -4 3 -4 3 -4 4 -4 3 -4 3 -4 2 -4 3 -4 3 -5 3 -4 2 -5 3 -4 2 -5 2 -4 2 -4 -8 4 -2 5 -2 4 -2 4 -3 5 -2 4 -3 4 -2 4 -3 4 -3 4 -3 4 -3 3 -3 4 -3 4 -3 3 -3 4 -4 3 -3 3 -3 4 -4 3 -4 3 -3 3 -4 3 -4 3 -4 2 -4 3 -4 3 -4 2 -4 3 -4 2 -4 2 -5 2 -4 6 -2zm-6 2c1,-2 4,-3 6,-2 3,1 4,3 3,6l-9 -4zm151 66l-148 -60 3 -8 148 60 -1 8 -2 0zm3 -8c2,1 4,3 3,6 -1,2 -4,3 -6,2l3 -8zm-261 48l258 -49 2 9 -258 49 -3 -9 1 0zm2 9c-3,0 -5,-1 -6,-4 0,-2 1,-5 4,-5l2 9z"/>
    </g>
    <g>
     <path class="fil7" d="M1368 8039l8 -4 -6 -2 8 -4 8 -3 8 -4 8 -4 8 -5 7 -4 8 -5 7 -5 7 -5 7 -5 7 -5 7 -5 7 -6 6 -6 7 -6 6 -6 6 -6 6 -6 6 -6 6 -7 5 -7 5 -7 6 -6 5 -7 5 -8 4 -7 5 -7 4 -8 5 -7 4 -8 3 -8 4 -8 9 4 -4 8 -4 8 -4 8 -5 8 -4 7 -5 8 -5 7 -5 8 -5 7 -5 7 -6 7 -5 7 -6 7 -6 6 -6 7 -7 6 -6 6 -7 6 -6 6 -7 6 -7 5 -7 6 -7 5 -8 5 -7 5 -8 5 -8 4 -8 4 -8 5 -8 4 -8 4 -8 3 -6 -2zm6 2c-2,1 -5,0 -6,-2 -1,-2 0,-5 2,-6l4 8zm-59 -151l61 145 -8 4 -62 -145 4 -6 5 2zm-9 4c0,-2 1,-5 3,-6 2,-1 5,0 6,2l-9 4zm264 -46l-258 49 -2 -9 258 -49 6 7 -4 2zm-2 -9c3,0 5,2 6,4 0,2 -1,5 -4,5l-2 -9z"/>
    </g>
    <g>
     <path class="fil7" d="M1352 7341l0 -2 9 4 -1 2 0 0 -8 -4zm8 4c-1,2 -4,3 -6,2 -2,-1 -3,-3 -2,-6l8 4zm-69 139l61 -143 8 4 -60 143 -6 2 -3 -6zm9 4c-1,2 -4,3 -6,2 -3,-1 -4,-3 -3,-6l9 4zm-83 -11l0 -9 0 0 3 0 3 0 2 0 3 0 2 0 3 0 3 0 2 1 3 0 2 0 3 0 2 1 3 0 2 0 3 1 2 0 3 1 2 0 3 1 2 0 3 1 2 0 3 1 2 1 3 0 2 1 2 1 3 1 2 0 2 1 3 1 2 1 -3 8 -2 -1 -3 0 -2 -1 -2 -1 -2 -1 -3 0 -2 -1 -2 0 -3 -1 -2 -1 -2 0 -3 -1 -2 0 -2 -1 -3 0 -2 -1 -3 0 -2 -1 -2 0 -3 0 -2 -1 -3 0 -2 0 -3 0 -2 0 -3 -1 -2 0 -3 0 -2 0 -3 0 -2 0 -3 0 0 0zm-81 5l6 8 -5 -8 3 -1 2 -1 2 -1 3 0 2 -1 3 -1 2 -1 2 0 3 -1 2 -1 3 0 2 -1 3 0 2 -1 3 0 2 -1 3 0 2 -1 3 0 2 0 3 -1 2 0 3 0 2 0 3 -1 3 0 2 0 3 0 2 0 3 0 3 0 2 0 0 9 -2 0 -3 0 -2 0 -3 0 -2 0 -3 0 -2 1 -3 0 -2 0 -3 0 -2 0 -3 1 -2 0 -2 0 -3 1 -2 0 -3 1 -2 0 -2 1 -3 0 -2 1 -2 0 -3 1 -2 1 -2 0 -3 1 -2 0 -2 1 -3 1 -2 1 -2 0 -2 1 -5 -8zm5 8c-3,1 -5,0 -6,-2 -1,-3 0,-5 2,-6l4 8zm218 -145l-217 145 -6 -8 218 -145 7 6 -2 2zm-5 -8c2,-1 5,-1 7,1 1,3 1,5 -2,7l-5 -8z"/>
    </g>
    <g>
     <path class="fil7" d="M1359 7345l-5 -8 1 8 -4 -1 -4 -2 -4 -1 -4 -2 -4 -1 -4 -1 -4 -1 -5 -2 -4 -1 -4 -1 -4 -1 -4 -1 -5 -1 -4 -1 -4 -1 -5 0 -4 -1 -4 -1 -5 -1 -4 0 -4 -1 -5 0 -4 -1 -5 0 -4 -1 -5 0 -4 0 -5 -1 -4 0 -5 0 -4 0 -5 0 0 -9 5 0 5 0 4 0 5 0 4 1 5 0 5 0 4 1 5 0 4 1 5 0 4 1 5 0 4 1 5 1 4 1 5 0 4 1 4 1 5 1 4 1 4 1 5 2 4 1 4 1 4 1 5 2 4 1 4 1 4 2 4 1 4 2 1 8zm-1 -8c3,1 4,3 3,6 -1,2 -4,3 -6,2l3 -8zm-222 145l218 -145 5 8 -217 145 -7 -2 1 -6zm6 8c-2,1 -5,1 -7,-1 -1,-3 -1,-5 1,-7l6 8zm-60 -151l61 145 -8 4 -62 -145 3 -6 6 2zm-9 4c0,-3 1,-5 3,-6 2,-1 5,0 6,2l-9 4zm144 -32l0 9 0 0 -4 0 -5 0 -4 0 -5 0 -4 1 -5 0 -4 0 -5 1 -4 0 -5 1 -4 0 -4 1 -5 0 -4 1 -5 1 -4 1 -4 0 -4 1 -5 1 -4 1 -4 1 -4 1 -5 1 -4 1 -4 2 -4 1 -4 1 -4 1 -4 2 -4 1 -5 2 -4 1 -3 -8 4 -2 4 -1 4 -2 5 -1 4 -1 4 -2 4 -1 5 -1 4 -1 4 -2 5 -1 4 -1 4 -1 5 -1 4 -1 4 0 5 -1 4 -1 5 -1 4 0 5 -1 4 0 5 -1 4 0 5 -1 5 0 4 0 5 -1 4 0 5 0 5 0 4 0 0 0z"/>
    </g>
   </g>
   <path class="fil7" d="M1770 7704c0,130 44,157 102,157 48,-1 96,1 142,-19l0 -43c0,0 -67,5 -120,5 -42,0 -56,-16 -56,-98 0,-97 20,-101 56,-101 51,0 116,3 116,3l0 -43c-47,-13 -108,-17 -138,-17 -59,0 -102,27 -102,156zm343 5c0,-95 17,-104 72,-104 55,0 71,9 71,104 0,88 -20,95 -71,95 -50,0 -72,-7 -72,-95zm-67 0c0,110 33,152 139,152 105,0 138,-38 138,-152 0,-122 -34,-161 -138,-161 -103,0 -139,35 -139,161zm387 0c0,-95 17,-104 71,-104 55,0 72,9 72,104 0,88 -20,95 -72,95 -49,0 -71,-7 -71,-95zm-67 0c0,110 33,152 138,152 106,0 139,-38 139,-152 0,-122 -34,-161 -139,-161 -103,0 -138,35 -138,161zm392 -50c0,-26 7,-51 45,-51l39 0c35,0 45,16 46,51 1,28 -9,56 -45,56l-41 0c-35,0 -44,-27 -44,-56zm0 260l0 -61c0,0 12,3 25,3l82 0c27,0 33,12 33,32l0 27c0,21 -5,38 -36,38l-62 0c-21,0 -42,-4 -42,-39l0 0zm-68 -123c0,24 10,45 27,55l-26 31 0 43c0,61 40,89 95,89l86 0c76,0 93,-48 93,-89l0 -35c0,-56 -32,-86 -85,-86l-104 0c-13,0 -24,-3 -24,-17 0,-14 14,-15 24,-15l78 0c85,0 101,-66 101,-107 0,-39 -8,-50 -14,-63l39 -10 0 -42 -185 0c-66,0 -104,36 -104,109 0,31 9,69 34,85 -25,7 -35,30 -35,52zm391 -137c0,-26 7,-51 45,-51l39 0c35,0 44,16 46,51 1,28 -9,56 -45,56l-42 0c-34,0 -43,-27 -43,-56zm0 260l0 -61c0,0 12,3 25,3l81 0c28,0 34,12 34,32l0 27c0,21 -6,38 -36,38l-62 0c-21,0 -42,-4 -42,-39l0 0zm-68 -123c0,24 10,45 26,55l-25 31 0 43c0,61 40,89 94,89l87 0c76,0 93,-48 93,-89l0 -35c0,-56 -32,-86 -85,-86l-105 0c-12,0 -23,-3 -23,-17 0,-14 14,-15 23,-15l79 0c85,0 101,-66 101,-107 0,-39 -8,-50 -14,-63l39 -10 0 -42 -185 0c-66,0 -104,36 -104,109 0,31 9,69 34,85 -25,7 -35,30 -35,52zm376 -114c0,-77 20,-78 71,-78 47,0 55,6 55,53 0,16 -9,25 -30,25l-96 0zm-67 21c0,116 23,158 101,158 48,0 109,-1 153,-16l0 -47c-43,7 -75,6 -124,6 -44,0 -63,-8 -63,-70l110 0c55,0 83,-23 83,-75 0,-102 -42,-110 -126,-110 -96,0 -134,20 -134,154zm309 155l67 0 0 -209c29,-26 53,-34 92,-34 16,0 35,1 43,2l0 -65c-8,-3 -23,-5 -37,-5 -42,0 -72,22 -98,43l-13 -39 -54 0 0 307z"/>
   <g>
    <g>
     <path class="fil16" d="M5311 7485l8 4 -2 -6 4 2 5 2 5 3 4 2 4 2 5 3 4 3 4 3 4 3 5 3 4 3 3 3 4 3 4 3 4 4 3 3 4 4 3 3 4 4 3 4 3 4 3 4 4 4 2 4 3 4 3 4 3 4 2 5 3 4 2 4 3 5 2 4 -9 4 -2 -4 -2 -4 -2 -5 -3 -4 -2 -4 -3 -4 -2 -4 -3 -4 -3 -4 -3 -4 -3 -4 -3 -3 -3 -4 -3 -3 -4 -4 -3 -3 -4 -4 -3 -3 -4 -3 -4 -3 -3 -3 -4 -3 -4 -3 -4 -3 -4 -3 -4 -2 -4 -3 -5 -2 -4 -2 -4 -3 -5 -2 -4 -2 -2 -6zm2 6c-2,-1 -3,-4 -2,-6 1,-2 4,-3 6,-2l-4 8zm67 -147l-61 145 -8 -4 61 -145 9 1 -1 3zm-8 -4c1,-2 4,-3 6,-2 2,1 3,3 2,6l-8 -4zm49 256l-49 -253 9 -2 49 253 -9 3 0 -1zm9 -2c1,3 -1,5 -4,6 -2,0 -5,-1 -5,-4l9 -2z"/>
    </g>
    <g>
     <path class="fil16" d="M5377 7347l-3 -1 4 -8 3 1 0 0 -4 8zm4 -8c2,1 3,4 2,6 -1,2 -4,3 -6,2l4 -8zm194 200l-3 -8 -3 6 -3 -8 -4 -8 -4 -7 -4 -8 -5 -7 -4 -8 -5 -7 -5 -7 -5 -7 -5 -7 -5 -6 -6 -7 -5 -7 -6 -6 -6 -6 -6 -6 -6 -6 -7 -6 -6 -6 -7 -5 -6 -6 -7 -5 -7 -5 -7 -5 -7 -5 -8 -4 -7 -5 -8 -4 -7 -4 -8 -4 -8 -4 -8 -4 4 -8 8 4 8 4 8 4 8 4 8 4 7 5 8 5 7 4 7 6 7 5 8 5 6 6 7 5 7 6 6 6 7 6 6 7 6 6 6 6 5 7 6 7 6 7 5 7 5 7 5 7 5 8 4 7 5 8 4 8 4 7 4 8 4 8 -3 6zm3 -6c1,3 0,5 -3,6 -2,1 -5,0 -6,-2l9 -4zm-154 58l148 -60 3 8 -148 60 -6 -3 3 -5zm3 8c-2,1 -5,0 -6,-2 -1,-2 0,-5 3,-6l3 8zm-46 -258l49 253 -9 2 -49 -253 6 -5 3 3zm-9 2c-1,-3 1,-5 3,-6 3,0 5,2 6,4l-9 2z"/>
    </g>
    <g>
     <path class="fil16" d="M5124 7484l2 -1 4 8 -2 1 -4 -8 0 0zm4 8c-2,1 -5,0 -6,-2 -1,-3 0,-5 2,-6l4 8zm-112 107l3 -8 -6 2 2 -4 3 -5 2 -4 2 -4 3 -5 3 -4 2 -4 3 -4 3 -4 3 -4 3 -4 3 -4 4 -3 3 -4 3 -4 4 -3 3 -4 4 -3 4 -3 4 -4 3 -3 4 -3 4 -3 4 -3 5 -2 4 -3 4 -3 4 -2 5 -3 4 -2 5 -2 4 -2 4 8 -4 2 -4 2 -5 2 -4 3 -4 2 -4 3 -4 2 -4 3 -4 3 -4 2 -4 3 -3 3 -4 3 -4 4 -3 3 -4 3 -3 4 -3 3 -3 4 -4 3 -3 4 -3 4 -2 3 -3 4 -3 4 -3 4 -2 4 -3 4 -2 4 -2 5 -2 4 -2 4 -6 2zm6 -2c-2,2 -4,3 -7,2 -2,-1 -3,-3 -2,-6l9 4zm-151 -66l148 60 -3 8 -148 -60 0 -8 3 0zm-3 8c-3,-1 -4,-3 -3,-5 1,-3 4,-4 6,-3l-3 8zm261 -48l-259 49 -2 -9 259 -49 3 9 -1 0zm-2 -9c3,0 5,2 5,4 1,3 -1,5 -3,5l-2 -9z"/>
    </g>
    <g>
     <path class="fil16" d="M5071 7340l-9 4 7 2 -9 4 -8 3 -7 4 -8 5 -8 4 -7 4 -8 5 -7 5 -7 5 -7 5 -7 5 -7 6 -7 5 -6 6 -7 6 -6 6 -6 6 -6 6 -6 7 -6 6 -5 7 -6 7 -5 7 -5 7 -5 7 -5 7 -4 7 -5 8 -4 8 -4 7 -4 8 -3 8 -9 -4 4 -8 4 -8 4 -8 4 -7 5 -8 4 -8 5 -7 5 -8 5 -7 6 -7 5 -7 6 -7 6 -6 6 -7 6 -6 6 -7 7 -6 6 -6 7 -6 7 -5 7 -6 7 -5 7 -6 8 -5 7 -5 8 -4 7 -5 8 -4 8 -5 8 -4 8 -4 9 -3 6 2zm-6 -2c2,-1 5,0 6,2 1,2 0,5 -2,6l-4 -8zm59 151l-62 -145 9 -4 61 145 -3 6 -5 -2zm8 -4c1,2 0,5 -2,6 -3,1 -5,0 -6,-2l8 -4zm-264 46l259 -49 2 9 -259 49 -5 -7 3 -2zm2 9c-2,0 -5,-1 -5,-4 -1,-2 1,-5 3,-5l2 9z"/>
    </g>
    <g>
     <path class="fil16" d="M4865 7556l-4 -2 4 -8 3 1 0 0 -3 9zm3 -9c2,1 4,4 3,6 -1,3 -4,4 -6,3l3 -9zm141 67l-144 -58 3 -9 145 59 2 6 -6 2zm4 -8c2,1 3,4 2,6 -1,2 -3,3 -6,2l4 -8zm-11 81l-10 0 0 0 0 -3 0 -2 0 -3 1 -2 0 -3 0 -2 0 -3 0 -3 0 -2 1 -3 0 -2 0 -3 1 -2 0 -2 1 -3 0 -2 0 -3 1 -2 0 -3 1 -2 1 -3 0 -2 1 -2 0 -3 1 -2 1 -2 1 -3 0 -2 1 -2 1 -3 1 -2 1 -2 8 3 0 2 -1 2 -1 2 -1 3 -1 2 0 2 -1 2 -1 3 0 2 -1 2 0 3 -1 2 0 2 -1 3 0 2 -1 2 0 3 -1 2 0 2 0 3 -1 2 0 2 0 3 0 2 -1 3 0 2 0 3 0 2 0 2 0 3 0 2 0 3 0 0zm5 79l8 -5 -8 4 -1 -2 -1 -2 -1 -3 -1 -2 0 -2 -1 -3 -1 -2 -1 -3 0 -2 -1 -2 0 -3 -1 -2 -1 -2 0 -3 -1 -2 0 -3 0 -2 -1 -3 0 -2 -1 -3 0 -2 0 -3 -1 -2 0 -3 0 -2 0 -3 0 -2 0 -3 -1 -2 0 -3 0 -3 0 -2 10 0 0 2 0 3 0 2 0 3 0 2 0 3 0 2 1 2 0 3 0 2 0 3 1 2 0 2 0 3 1 2 0 3 1 2 0 2 1 3 0 2 1 2 0 3 1 2 0 2 1 2 1 3 0 2 1 2 1 2 1 3 1 2 0 2 -8 4zm8 -4c1,2 0,5 -2,6 -3,1 -5,-1 -6,-3l8 -3zm-148 -214l148 213 -8 5 -148 -213 6 -7 2 2zm-8 5c-1,-2 -1,-5 1,-7 3,-1 5,0 7,2l-8 5z"/>
    </g>
    <g>
     <path class="fil16" d="M4832 7687l10 0 0 0 0 4 0 5 0 4 0 5 0 4 0 4 1 5 0 4 1 5 0 4 1 4 0 5 1 4 1 4 0 4 1 5 1 4 1 4 1 4 1 4 1 5 1 4 1 4 1 4 2 4 1 4 1 4 1 4 2 4 1 4 2 4 1 4 -8 3 -2 -4 -1 -4 -2 -4 -1 -4 -2 -4 -1 -4 -1 -4 -2 -5 -1 -4 -1 -4 -1 -4 -1 -5 -1 -4 -1 -4 -1 -4 -1 -5 -1 -4 -1 -4 0 -5 -1 -4 -1 -5 0 -4 -1 -4 0 -5 0 -4 -1 -5 0 -4 0 -5 -1 -4 0 -5 0 -5 0 -4 0 0zm35 -139l-8 5 8 -1 -1 4 -2 4 -1 4 -2 4 -1 4 -1 4 -1 4 -2 4 -1 4 -1 4 -1 4 -1 4 -1 5 -1 4 -1 4 -1 4 -1 4 0 5 -1 4 -1 4 0 5 -1 4 0 4 -1 5 0 4 -1 4 0 5 0 4 0 5 0 4 0 4 0 5 -10 0 0 -5 0 -4 0 -5 1 -4 0 -5 0 -4 1 -5 0 -4 0 -5 1 -4 0 -5 1 -4 1 -4 0 -5 1 -4 1 -4 1 -5 1 -4 1 -4 1 -5 1 -4 1 -4 1 -4 1 -5 2 -4 1 -4 1 -4 2 -4 1 -4 2 -4 1 -4 2 -4 8 -1zm-8 1c1,-3 3,-4 6,-3 2,1 3,4 2,6l-8 -3zm148 217l-148 -213 8 -5 148 213 -2 7 -6 -2zm8 -5c1,2 1,5 -1,6 -3,2 -5,1 -7,-1l8 -5zm-154 58l148 -60 4 9 -148 60 -6 -3 2 -6zm4 9c-3,1 -5,0 -6,-3 -1,-2 0,-5 2,-6l4 9z"/>
    </g>
    <g>
     <path class="fil16" d="M5025 7784l-8 4 0 0 0 0 0 0 0 0 0 -1 -1 0 0 0 0 0 0 -1 0 0 0 0 0 0 -1 -1 0 0 0 0 0 0 0 -1 0 0 0 0 0 0 0 -1 -1 0 0 0 0 0 0 -1 0 0 0 0 0 0 0 -1 -1 0 0 0 0 0 0 -1 9 -3 0 0 0 0 0 0 0 1 0 0 0 0 0 0 0 1 1 0 0 0 0 0 0 0 0 1 0 0 0 0 0 0 1 1 0 0 0 0 0 0 0 1 0 0 0 0 0 0 0 1 1 0 0 0 0 0 0 1 0 0 0 0 0 0 0 0zm0 0c1,2 1,5 -2,6 -2,1 -5,1 -6,-2l8 -4zm107 105l-8 -4 2 6 -4 -2 -5 -2 -4 -2 -4 -3 -4 -2 -5 -2 -4 -3 -4 -3 -4 -2 -3 -3 -4 -3 -4 -3 -4 -3 -3 -3 -4 -3 -3 -3 -4 -4 -3 -3 -3 -3 -4 -4 -3 -3 -3 -4 -3 -4 -3 -4 -3 -3 -2 -4 -3 -4 -3 -4 -2 -4 -2 -4 -3 -4 -2 -5 8 -4 2 4 3 4 2 4 2 4 3 4 2 4 3 3 3 4 3 4 2 3 3 4 3 3 3 3 4 4 3 3 3 3 3 3 4 3 3 3 4 3 3 3 4 3 4 2 4 3 3 2 4 3 4 2 4 2 4 3 4 2 5 2 4 2 2 6zm-2 -6c2,1 3,4 2,6 -1,2 -4,3 -6,2l4 -8zm-68 147l62 -145 8 4 -61 145 -9 -1 0 -3zm9 4c-1,2 -4,3 -6,2 -3,-1 -4,-4 -3,-6l9 4zm-49 -256l49 253 -9 2 -49 -254 9 -2 0 1zm-9 1c-1,-2 1,-5 3,-5 3,0 5,1 6,4l-9 1z"/>
    </g>
    <g>
     <path class="fil16" d="M4868 7834l3 9 3 -6 3 8 4 7 4 8 4 8 5 7 4 8 5 7 5 7 5 7 5 7 6 7 5 7 6 6 6 7 6 6 6 6 6 6 7 6 6 6 7 5 7 6 7 5 7 5 7 5 7 5 8 4 7 5 8 4 8 4 7 4 8 4 9 4 -4 8 -9 -4 -8 -4 -8 -4 -8 -4 -8 -4 -7 -5 -8 -5 -7 -4 -8 -6 -7 -5 -7 -5 -7 -6 -7 -5 -7 -6 -6 -6 -7 -6 -6 -7 -6 -6 -6 -7 -6 -7 -6 -6 -5 -7 -6 -7 -5 -8 -5 -7 -5 -7 -4 -8 -5 -8 -4 -8 -4 -7 -4 -8 -4 -9 3 -6zm-3 6c-1,-2 0,-5 2,-6 3,-1 6,0 7,3l-9 3zm154 -57l-148 60 -3 -9 148 -60 6 4 -3 5zm-3 -9c2,-1 5,0 6,3 1,2 -1,5 -3,6l-3 -9zm46 259l-49 -254 9 -1 49 253 -6 5 -3 -3zm9 -2c1,2 -1,5 -3,5 -3,1 -5,-1 -6,-3l9 -2z"/>
    </g>
    <g>
     <path class="fil16" d="M5147 7895l-61 145 -8 -4 61 -145 6 -2 2 6zm-8 -4c1,-2 4,-3 6,-2 2,1 3,4 2,6l-8 -4zm82 11l0 9 0 0 -2 0 -3 0 -2 0 -3 0 -3 0 -2 0 -3 0 -2 -1 -3 0 -3 0 -2 0 -3 -1 -2 0 -3 0 -2 -1 -3 0 -2 -1 -3 0 -2 -1 -3 0 -2 -1 -3 0 -2 -1 -2 -1 -3 0 -2 -1 -3 -1 -2 0 -2 -1 -3 -1 -2 -1 -2 -1 3 -8 2 1 2 0 3 1 2 1 2 1 2 0 3 1 2 1 2 0 3 1 2 0 2 1 3 0 2 1 3 0 2 1 2 0 3 1 2 0 3 0 2 1 3 0 2 0 2 0 3 1 2 0 3 0 2 0 3 0 2 0 3 0 2 0 0 0zm81 -5l-5 -8 4 8 -2 1 -2 1 -3 1 -2 1 -3 0 -2 1 -2 1 -3 0 -2 1 -3 1 -2 0 -3 1 -2 0 -2 1 -3 0 -2 1 -3 0 -2 1 -3 0 -3 0 -2 1 -3 0 -2 0 -3 0 -2 1 -3 0 -3 0 -2 0 -3 0 -2 0 -3 0 -3 0 0 -9 3 0 2 0 3 0 2 0 3 0 2 0 3 0 2 -1 3 0 2 0 3 0 2 -1 3 0 2 0 2 -1 3 0 2 -1 3 0 2 -1 2 0 3 -1 2 0 2 -1 3 0 2 -1 2 -1 3 0 2 -1 2 -1 3 -1 2 0 2 -1 4 8zm-4 -8c2,-1 5,0 6,3 1,2 0,4 -3,5l-3 -8zm-219 145l218 -145 5 8 -217 145 -7 -6 1 -2zm6 8c-3,1 -5,1 -7,-1 -1,-2 -1,-5 1,-7l6 8z"/>
    </g>
    <g>
     <path class="fil16" d="M5221 8068l0 -9 0 0 5 0 5 0 4 0 5 0 4 -1 5 0 4 0 4 -1 5 0 4 0 5 -1 4 -1 5 0 4 -1 4 -1 5 0 4 -1 4 -1 4 -1 5 -1 4 -1 4 -1 4 -1 5 -1 4 -2 4 -1 4 -1 4 -1 4 -2 4 -1 4 -2 4 -1 4 8 -5 2 -4 1 -4 2 -4 1 -4 2 -4 1 -5 1 -4 1 -4 2 -5 1 -4 1 -4 1 -5 1 -4 1 -4 1 -5 1 -4 0 -5 1 -4 1 -5 0 -4 1 -5 1 -4 0 -5 1 -4 0 -5 0 -4 1 -5 0 -5 0 -4 0 -5 0 -5 0 0 0zm-142 -34l6 8 -1 -8 4 1 4 2 4 1 4 2 4 1 4 1 4 1 4 2 4 1 5 1 4 1 4 1 4 1 5 1 4 1 4 1 5 0 4 1 4 1 5 0 4 1 5 1 4 0 4 0 5 1 4 0 5 0 4 1 5 0 4 0 5 0 4 0 0 9 -4 0 -5 0 -5 0 -4 0 -5 0 -4 -1 -5 0 -5 0 -4 -1 -5 0 -4 -1 -5 -1 -4 0 -5 -1 -4 -1 -4 0 -5 -1 -4 -1 -5 -1 -4 -1 -4 -1 -5 -1 -4 -1 -4 -2 -5 -1 -4 -1 -4 -1 -4 -2 -4 -1 -5 -2 -4 -1 -4 -2 -1 -8zm1 8c-2,-1 -3,-3 -2,-6 1,-2 3,-3 6,-2l-4 8zm222 -145l-217 145 -6 -8 218 -145 7 2 -2 6zm-5 -8c2,-1 5,-1 6,2 2,2 1,4 -1,6l-5 -8zm60 151l-62 -145 9 -4 61 145 -2 6 -6 -2zm8 -4c1,3 0,5 -2,6 -3,1 -5,0 -6,-2l8 -4z"/>
    </g>
    <g>
     <path class="fil16" d="M5427 7774l-3 9 6 -3 -2 5 -3 4 -2 5 -3 4 -2 5 -3 4 -3 4 -3 4 -2 4 -4 4 -3 4 -3 4 -3 4 -4 3 -3 4 -4 4 -3 3 -4 3 -4 4 -4 3 -3 3 -4 3 -5 3 -4 3 -4 3 -4 3 -5 2 -4 3 -4 2 -5 3 -5 2 -4 2 -4 -8 4 -2 5 -2 4 -3 4 -2 5 -2 4 -3 4 -3 4 -2 4 -3 4 -3 4 -3 3 -3 4 -3 4 -3 3 -3 4 -4 3 -3 4 -4 3 -3 3 -4 3 -4 3 -3 3 -4 3 -4 3 -4 2 -4 3 -4 2 -4 3 -4 2 -5 2 -4 2 -4 6 -3zm-6 3c1,-3 4,-4 6,-3 3,1 4,4 3,6l-9 -3zm151 66l-148 -60 3 -9 148 60 -1 9 -2 0zm3 -9c3,1 4,4 3,6 -1,3 -4,4 -6,3l3 -9zm-261 48l259 -48 1 9 -258 48 -3 -8 1 -1zm2 9c-3,1 -5,-1 -6,-3 0,-3 2,-5 4,-6l2 9z"/>
    </g>
    <g>
     <path class="fil16" d="M5372 8034l8 -4 -6 -2 8 -4 8 -4 8 -4 8 -4 8 -4 7 -5 8 -4 7 -5 7 -5 7 -5 7 -5 7 -6 7 -5 6 -6 7 -6 6 -6 6 -6 6 -6 6 -7 6 -6 5 -7 6 -7 5 -7 5 -7 5 -7 4 -7 5 -8 4 -7 5 -8 4 -8 4 -7 3 -8 9 3 -4 9 -4 8 -4 7 -4 8 -5 8 -5 8 -4 7 -5 7 -6 8 -5 7 -6 7 -5 6 -6 7 -6 7 -6 6 -6 7 -7 6 -6 6 -7 6 -7 5 -7 6 -7 5 -7 5 -8 6 -7 4 -8 5 -8 5 -7 4 -8 4 -8 4 -9 4 -8 4 -6 -2zm6 2c-2,1 -5,0 -6,-2 -1,-3 0,-5 2,-6l4 8zm-59 -151l61 145 -8 4 -61 -145 3 -7 5 3zm-8 4c-1,-3 0,-5 2,-6 2,-1 5,0 6,2l-8 4zm263 -46l-258 48 -2 -9 259 -48 5 6 -4 3zm-1 -9c2,0 5,1 5,4 1,2 -1,5 -4,5l-1 -9z"/>
    </g>
    <g>
     <path class="fil16" d="M5356 7336l1 -2 8 3 -1 3 0 0 -8 -4zm8 4c-1,2 -3,3 -6,2 -2,-1 -3,-4 -2,-6l8 4zm-69 139l61 -143 8 4 -60 142 -6 3 -3 -6zm9 3c-1,3 -4,4 -6,3 -3,-1 -4,-4 -3,-6l9 3zm-83 -10l0 -10 0 0 3 0 3 0 2 1 3 0 2 0 3 0 3 0 2 0 3 1 2 0 3 0 2 0 3 1 3 0 2 1 3 0 2 0 3 1 2 0 2 1 3 1 2 0 3 1 2 0 3 1 2 1 2 0 3 1 2 1 3 1 2 1 2 0 -3 9 -2 -1 -2 -1 -3 0 -2 -1 -2 -1 -3 -1 -2 0 -2 -1 -3 0 -2 -1 -2 -1 -3 0 -2 -1 -2 0 -3 -1 -2 0 -3 0 -2 -1 -2 0 -3 -1 -2 0 -3 0 -2 0 -3 -1 -2 0 -3 0 -2 0 -3 0 -2 0 -3 0 -2 0 -3 0 0 0zm-80 5l5 7 -4 -8 2 0 2 -1 3 -1 2 -1 2 -1 3 0 2 -1 3 -1 2 0 2 -1 3 0 2 -1 3 -1 2 0 3 -1 2 0 3 0 2 -1 3 0 2 -1 3 0 2 0 3 0 3 -1 2 0 3 0 2 0 3 0 3 0 2 -1 3 0 2 0 0 10 -2 0 -3 0 -2 0 -3 0 -2 0 -3 0 -2 0 -3 0 -2 1 -2 0 -3 0 -2 0 -3 1 -2 0 -3 1 -2 0 -2 0 -3 1 -2 0 -3 1 -2 0 -2 1 -3 1 -2 0 -2 1 -3 0 -2 1 -2 1 -2 1 -3 0 -2 1 -2 1 -4 -8zm4 8c-3,1 -5,0 -6,-3 -1,-2 0,-5 3,-6l3 9zm219 -146l-218 145 -5 -7 217 -145 7 5 -1 2zm-6 -7c2,-1 5,-1 7,1 1,2 1,5 -1,6l-6 -7z"/>
    </g>
    <g>
     <path class="fil16" d="M5364 7339l-6 -7 1 8 -4 -2 -4 -1 -4 -1 -4 -2 -4 -1 -4 -1 -4 -2 -4 -1 -5 -1 -4 -1 -4 -1 -4 -1 -5 -1 -4 -1 -4 -1 -4 -1 -5 -1 -4 0 -4 -1 -5 -1 -4 0 -5 -1 -4 0 -5 -1 -4 0 -4 0 -5 -1 -4 0 -5 0 -4 0 -5 0 -5 0 0 -9 5 0 5 0 4 0 5 0 5 0 4 1 5 0 4 0 5 1 4 0 5 1 4 0 5 1 4 1 5 0 4 1 5 1 4 1 4 1 5 1 4 1 4 1 5 1 4 1 4 2 5 1 4 1 4 2 4 1 4 1 4 2 5 1 1 8zm-1 -8c2,1 3,4 2,6 -1,3 -3,4 -6,3l4 -9zm-222 146l217 -145 6 7 -218 145 -7 -2 2 -5zm5 7c-2,2 -5,1 -7,-1 -1,-2 -1,-5 2,-6l5 7zm-60 -150l61 145 -8 3 -61 -145 2 -6 6 3zm-8 3c-1,-2 0,-5 2,-5 2,-1 5,0 6,2l-8 3zm143 -31l0 9 0 0 -4 0 -5 0 -4 0 -5 0 -4 0 -5 1 -4 0 -5 0 -4 1 -4 0 -5 1 -4 0 -5 1 -4 1 -4 0 -5 1 -4 1 -4 1 -5 1 -4 1 -4 1 -4 1 -5 1 -4 1 -4 1 -4 2 -4 1 -4 1 -4 2 -4 1 -4 1 -4 2 -4 -9 4 -1 4 -2 5 -1 4 -1 4 -2 4 -1 4 -1 5 -2 4 -1 4 -1 5 -1 4 -1 4 -1 5 -1 4 -1 5 -1 4 -1 4 0 5 -1 4 -1 5 0 4 -1 5 0 4 -1 5 0 5 0 4 -1 5 0 4 0 5 0 5 0 4 0 0 0z"/>
    </g>
   </g>
   <path class="fil16" d="M5775 7699c0,129 44,157 101,157 48,-1 96,0 142,-19l0 -44c0,0 -67,5 -120,5 -42,0 -56,-15 -56,-97 0,-98 20,-102 56,-102 51,0 116,4 116,4l0 -43c-47,-13 -108,-17 -138,-17 -59,0 -101,26 -101,156zm342 5c0,-95 17,-105 72,-105 55,0 71,10 71,105 0,88 -20,94 -71,94 -49,0 -72,-7 -72,-94zm-67 0c0,109 33,152 139,152 106,0 138,-39 138,-152 0,-122 -34,-161 -138,-161 -103,0 -139,35 -139,161zm387 0c0,-95 17,-105 72,-105 55,0 71,10 71,105 0,88 -20,94 -71,94 -50,0 -72,-7 -72,-94zm-67 0c0,109 33,152 139,152 105,0 138,-39 138,-152 0,-122 -34,-161 -138,-161 -103,0 -139,35 -139,161zm392 -50c0,-26 7,-52 46,-52l38 0c35,0 45,17 46,52 1,28 -9,55 -45,55l-41 0c-35,0 -44,-27 -44,-55zm0 260l0 -61c0,0 12,3 25,3l82 0c27,0 33,11 33,32l0 27c0,21 -5,37 -36,37l-62 0c-21,0 -42,-4 -42,-38l0 0zm-68 -123c0,24 11,44 27,55l-26 31 0 43c0,61 40,89 95,89l86 0c76,0 94,-49 94,-89l0 -35c0,-57 -33,-87 -85,-87l-105 0c-13,0 -24,-2 -24,-16 0,-14 15,-15 24,-15l78 0c85,0 101,-66 101,-107 0,-39 -8,-50 -14,-63l39 -10 0 -43 -185 1c-66,0 -104,36 -104,109 0,31 9,69 35,85 -25,6 -36,29 -36,52zm391 -137c0,-26 7,-52 45,-52l39 0c35,0 45,17 46,52 1,28 -9,55 -45,55l-41 0c-35,0 -44,-27 -44,-55zm0 260l0 -61c0,0 12,3 25,3l82 0c27,0 33,11 33,32l0 27c0,21 -6,37 -36,37l-62 0c-21,0 -42,-4 -42,-38l0 0zm-68 -123c0,24 10,44 27,55l-26 31 0 43c0,61 40,89 94,89l87 0c76,0 93,-49 93,-89l0 -35c0,-57 -32,-87 -85,-87l-104 0c-13,0 -24,-2 -24,-16 0,-14 14,-15 24,-15l78 0c85,0 101,-66 101,-107 0,-39 -8,-50 -14,-63l39 -10 0 -43 -185 1c-66,0 -104,36 -104,109 0,31 9,69 34,85 -25,6 -35,29 -35,52zm376 -115c0,-76 20,-78 71,-78 47,0 55,7 55,53 0,17 -9,25 -29,25l-97 0zm-67 22c0,115 24,158 102,158 48,0 108,-1 152,-17l0 -46c-43,7 -75,6 -124,6 -44,0 -63,-9 -63,-70l110 0c55,0 83,-24 83,-75 0,-102 -42,-111 -125,-111 -96,0 -135,21 -135,155zm309 155l67 0 0 -210c29,-26 54,-34 92,-34 17,0 36,1 43,3l0 -66c-7,-3 -22,-4 -37,-4 -42,0 -72,22 -98,42l-12 -38 -55 0 0 307z"/>
  </g>
 </g>
</svg>
